<?xml version="1.0" encoding="utf-8"?>
<!-- Generator: Adobe Illustrator 23.0.0, SVG Export Plug-In . SVG Version: 6.00 Build 0)  -->
<svg version="1.1" id="Layer_1" xmlns="http://www.w3.org/2000/svg" xmlns:xlink="http://www.w3.org/1999/xlink" x="0px" y="0px"
	 viewBox="0 0 120 123" style="enable-background:new 0 0 120 123;" xml:space="preserve">
<style type="text/css">
	.st0{opacity:0.49;}
	.st1{fill:#FFFFFF;}
</style>
<g class="st0">
	<path class="st1" d="M88.59,109.29l-2.27,8.67H37.16l0.39-1.86C56.24,98.44,68.76,86.3,75.1,79.69c7.76-8.17,12.85-14.8,15.28-19.9
		c1.56-3.17,2.34-6.82,2.34-10.95c0-4.54-1.09-7.97-3.27-10.29c-2.18-2.32-5.24-3.48-9.19-3.48c-4.41,0-8.17,1.18-11.29,3.55
		c-3.12,2.36-6.15,6.69-9.09,12.98h-3.72c2.57-7.71,6.17-13.44,10.81-17.18c4.64-3.74,9.75-5.61,15.35-5.61
		c6.56,0,11.7,1.79,15.42,5.37s5.58,8.24,5.58,13.98c0,3.26-0.51,6.17-1.51,8.74c-1.29,3.35-3.53,6.85-6.75,10.5
		C91.85,71.05,84.83,77.67,74,87.26l-24.65,22.03H88.59z"/>
</g>
</svg>
