<?xml version="1.0" encoding="utf-8"?>
<!-- Generator: Adobe Illustrator 23.0.0, SVG Export Plug-In . SVG Version: 6.00 Build 0)  -->
<svg version="1.1" id="Layer_1" xmlns="http://www.w3.org/2000/svg" xmlns:xlink="http://www.w3.org/1999/xlink" x="0px" y="0px"
	 viewBox="0 0 61.91 94.82" style="enable-background:new 0 0 61.91 94.82;" xml:space="preserve">
<style type="text/css">
	.st0{opacity:0.34;}
	.st1{fill:#FFFFFF;}
</style>
<g class="st0">
	<g>
		<path class="st1" d="M31.36,18.15l-2.74-1.2c1.33-4.36,3.8-7.87,7.41-10.54c3.6-2.67,7.49-4,11.68-4c4.67,0,8.21,1.11,10.61,3.33
			c2.4,2.22,3.6,5.03,3.6,8.41c0,2.22-0.53,4.3-1.6,6.24c-1.07,1.93-2.65,3.73-4.74,5.37c-0.89,0.71-5.03,3.58-12.41,8.61
			c4.63,1.07,7.97,2.83,10.04,5.3c2.07,2.47,3.1,5.53,3.1,9.17c0,5.83-2.16,12.15-6.47,18.98c-4.31,6.83-10.45,12.3-18.41,16.41
			C23.46,88.35,15.3,90.4,6.94,90.4c-0.89,0-2.22-0.02-4-0.07l0.6-2.8c5.47,0,10.83-0.97,16.08-2.9c5.25-1.93,9.86-4.72,13.84-8.37
			c3.98-3.65,7.19-7.75,9.64-12.31c2.45-4.56,3.67-8.82,3.67-12.78c0-3.25-0.88-5.81-2.64-7.71c-1.76-1.89-3.99-2.83-6.7-2.83
			c-1.78,0-3.91,0.64-6.4,1.93c-3.51,1.78-6.05,3.45-7.61,5c-1.02-0.93-1.65-1.76-1.87-2.47c2.67-2.31,6.05-4.71,10.14-7.21
			c5.96-3.56,9.98-6.23,12.08-8.01c2.85-2.36,4.96-4.78,6.34-7.27c1.38-2.49,2.07-5.09,2.07-7.81c0-2-0.69-3.66-2.07-4.97
			c-1.38-1.31-3.2-1.97-5.47-1.97c-2.4,0-4.83,0.81-7.27,2.43C34.91,11.94,32.91,14.55,31.36,18.15z"/>
	</g>
</g>
</svg>
