<?xml version="1.0" encoding="utf-8"?>
<!-- Generator: Adobe Illustrator 23.0.0, SVG Export Plug-In . SVG Version: 6.00 Build 0)  -->
<svg version="1.1" id="Layer_1" xmlns="http://www.w3.org/2000/svg" xmlns:xlink="http://www.w3.org/1999/xlink" x="0px" y="0px"
	 viewBox="0 0 278 68" style="enable-background:new 0 0 278 68;" xml:space="preserve">
<style type="text/css">
	.st0{fill:#FFFFFF;}
</style>
<path class="st0" d="M96.88,9.36c0,0.98-0.17,1.88-0.49,2.69c-0.64,1.6-1.91,2.87-3.51,3.49c-0.88,0.33-1.82,0.5-2.76,0.49h-5.08
	V2.7h5.08c1.01,0,1.94,0.17,2.76,0.49c1.6,0.62,2.88,1.88,3.51,3.48C96.73,7.5,96.88,8.4,96.88,9.36z M94.34,9.36
	c0-0.73-0.1-1.39-0.29-1.96c-0.17-0.54-0.46-1.05-0.84-1.47C92.84,5.52,92.38,5.2,91.87,5c-0.56-0.22-1.15-0.33-1.75-0.32h-2.6v9.4
	h2.6c0.65,0,1.23-0.11,1.75-0.32c0.52-0.21,0.97-0.52,1.33-0.93c0.36-0.41,0.65-0.9,0.84-1.47S94.34,10.09,94.34,9.36z
	 M101.57,16.04h-2.5V2.7h2.5V16.04z M111.66,5.13c-0.06,0.11-0.14,0.21-0.24,0.28c-0.09,0.06-0.2,0.09-0.31,0.08
	c-0.13,0-0.27-0.04-0.42-0.14l-0.53-0.32c-0.23-0.13-0.48-0.23-0.73-0.32c-0.28-0.1-0.62-0.14-1-0.14c-0.35,0-0.65,0.04-0.9,0.13
	c-0.25,0.08-0.48,0.2-0.65,0.35c-0.17,0.14-0.31,0.33-0.39,0.53c-0.08,0.21-0.13,0.44-0.13,0.67c0,0.31,0.08,0.58,0.27,0.79
	c0.17,0.21,0.41,0.39,0.7,0.53c0.29,0.14,0.62,0.28,0.98,0.39c0.77,0.25,1.53,0.53,2.27,0.84c0.36,0.17,0.7,0.39,0.98,0.66
	c0.29,0.27,0.52,0.59,0.7,0.98s0.27,0.86,0.27,1.42c0,0.6-0.1,1.16-0.31,1.7c-0.41,1.07-1.27,1.91-2.36,2.3
	c-1.44,0.5-3,0.45-4.41-0.14c-0.37-0.15-0.73-0.33-1.07-0.55c-0.32-0.2-0.62-0.44-0.88-0.72l0.73-1.19
	c0.13-0.18,0.33-0.29,0.55-0.29c0.15,0,0.32,0.07,0.51,0.2l0.63,0.42c0.25,0.15,0.53,0.29,0.87,0.42c0.32,0.13,0.73,0.18,1.19,0.18
	c0.7,0,1.25-0.17,1.64-0.51c0.39-0.34,0.58-0.81,0.58-1.45c0.01-0.31-0.08-0.61-0.27-0.86c-0.19-0.24-0.43-0.43-0.7-0.56
	c-0.31-0.16-0.64-0.29-0.98-0.38l-1.12-0.34c-0.38-0.12-0.76-0.27-1.12-0.45c-0.36-0.17-0.7-0.39-0.98-0.67
	c-0.3-0.29-0.54-0.65-0.7-1.04c-0.36-0.96-0.35-2.01,0.03-2.96c0.2-0.46,0.48-0.87,0.84-1.22c0.36-0.35,0.83-0.65,1.36-0.86
	c1.32-0.42,2.73-0.41,4.04,0.04c0.66,0.25,1.23,0.59,1.7,1.04C112.31,3.99,111.66,5.13,111.66,5.13z M119.01,2.7
	c0.9,0,1.67,0.1,2.32,0.31c0.65,0.21,1.19,0.51,1.61,0.87c0.42,0.38,0.74,0.83,0.94,1.35c0.42,1.13,0.42,2.37-0.01,3.49
	c-0.21,0.53-0.53,1-0.97,1.39c-0.44,0.39-0.97,0.69-1.61,0.9c-0.65,0.21-1.4,0.32-2.27,0.32h-1.85v4.7h-2.48V2.7
	C114.68,2.7,119.01,2.7,119.01,2.7z M119.01,9.41c0.45,0,0.86-0.06,1.19-0.17c0.62-0.18,1.12-0.65,1.35-1.26
	c0.23-0.64,0.23-1.35,0-1.99c-0.22-0.59-0.72-1.04-1.33-1.21c-0.39-0.11-0.79-0.17-1.19-0.17h-1.85v4.79h1.84V9.41z M138.83,9.36
	c0,0.98-0.15,1.88-0.49,2.72c-0.98,2.58-3.51,4.24-6.27,4.11c-1.01,0-1.92-0.17-2.76-0.52c-1.61-0.67-2.88-1.97-3.51-3.59
	c-0.32-0.83-0.49-1.74-0.49-2.72s0.17-1.88,0.49-2.72c0.62-1.63,1.89-2.94,3.51-3.59c1.48-0.6,3.13-0.7,4.67-0.28
	c1.13,0.3,2.15,0.89,2.99,1.7c0.81,0.84,1.37,1.88,1.64,3.02C138.76,8.1,138.83,8.72,138.83,9.36z M136.3,9.36
	c0-0.73-0.1-1.39-0.29-1.96c-0.18-0.55-0.46-1.05-0.84-1.49c-0.36-0.41-0.81-0.72-1.32-0.93c-0.52-0.21-1.11-0.32-1.75-0.32
	c-0.65,0-1.23,0.11-1.75,0.32c-1.06,0.43-1.86,1.32-2.18,2.41c-0.2,0.58-0.29,1.23-0.29,1.96s0.1,1.39,0.29,1.96
	c0.2,0.58,0.48,1.08,0.84,1.47c0.36,0.41,0.81,0.72,1.33,0.93s1.11,0.32,1.75,0.32s1.23-0.11,1.75-0.32s0.97-0.52,1.32-0.93
	c0.35-0.41,0.65-0.9,0.84-1.47C136.2,10.75,136.3,10.09,136.3,9.36z M152.27,2.7v13.35H151c-0.17,0.01-0.34-0.03-0.49-0.1
	c-0.15-0.08-0.28-0.19-0.38-0.32l-6.97-8.9c0.04,0.41,0.06,0.79,0.06,1.12v8.2h-2.19V2.7h1.31l0.27,0.01l0.2,0.06l0.17,0.13
	l0.18,0.21l7,8.94l-0.04-0.63l-0.01-0.58V2.7H152.27z M157.75,16.04h-2.5V2.7h2.5V16.04z M165.32,2.7c0.87,0,1.63,0.08,2.25,0.25
	c0.62,0.17,1.14,0.41,1.53,0.72c0.39,0.31,0.69,0.67,0.87,1.12c0.18,0.45,0.28,0.93,0.28,1.47c0.01,0.97-0.49,1.87-1.32,2.37
	c-0.29,0.21-0.66,0.38-1.07,0.52c1.84,0.41,2.75,1.4,2.75,2.98c0,0.56-0.11,1.09-0.32,1.57c-0.21,0.48-0.53,0.9-0.94,1.23
	c-0.41,0.35-0.93,0.62-1.53,0.81c-0.6,0.2-1.29,0.29-2.06,0.29h-5.04V2.7H165.32L165.32,2.7z M163.2,4.62v3.86h1.98
	c0.86,0,1.49-0.15,1.92-0.46c0.44-0.31,0.65-0.8,0.65-1.47c0-0.7-0.2-1.19-0.59-1.49c-0.39-0.29-1.01-0.45-1.85-0.45h-2.1V4.62z
	 M165.72,14.11c0.46,0,0.84-0.06,1.16-0.17c0.54-0.15,0.98-0.56,1.16-1.09c0.17-0.51,0.16-1.06-0.01-1.57
	c-0.1-0.22-0.24-0.42-0.44-0.59s-0.45-0.29-0.76-0.38c-0.37-0.09-0.74-0.13-1.12-0.13h-2.5v3.92h2.5L165.72,14.11z M180.7,13.99
	v2.05h-7.82V2.7h2.48v11.3H180.7z M184.96,4.66v3.7h4.67v1.91h-4.67v3.77h5.92v1.98h-8.42V2.7h8.42v1.98h-5.92V4.66z M200.07,4.66
	v3.7h4.67v1.91h-4.67v3.77h5.92v1.98h-8.42V2.7h8.42v1.98h-5.92V4.66z M219.43,2.7v13.35h-1.28c-0.17,0.01-0.34-0.03-0.49-0.1
	c-0.15-0.08-0.28-0.19-0.38-0.32l-6.97-8.9c0.04,0.41,0.06,0.79,0.06,1.12v8.2h-2.19V2.7h1.31l0.27,0.01l0.2,0.06l0.17,0.13
	l0.18,0.21l7,8.94l-0.04-0.63l-0.01-0.58V2.7H219.43L219.43,2.7z"/>
<g>
	<path class="st0" d="M84.86,23.25h5.94l11.84,30.79h-6.09l-2.41-6.34H81.58l-2.51,6.34h-6.09C72.98,54.04,84.86,23.25,84.86,23.25z
		 M87.87,31.41l-4.13,10.57h8.24L87.87,31.41z M112.22,31.26v2.51c0.96-0.98,2.09-1.77,3.35-2.32c1.22-0.52,2.53-0.78,3.85-0.77
		c2.97,0,5.5,1.12,7.58,3.37s3.12,5.13,3.12,8.65c0,3.39-1.07,6.23-3.22,8.51c-2.82,3.18-7.34,4.27-11.3,2.72
		c-1.25-0.55-2.4-1.33-3.37-2.29v10.74h-5.67V31.26H112.22L112.22,31.26z M118.23,35.95c-1.8,0-3.29,0.61-4.48,1.84
		c-1.22,1.3-1.86,3.03-1.78,4.81c0,2.02,0.59,3.66,1.78,4.91s2.68,1.87,4.48,1.87c1.74,0,3.21-0.63,4.41-1.9
		c1.21-1.32,1.85-3.07,1.79-4.86c0-1.95-0.59-3.55-1.76-4.8S120.02,35.95,118.23,35.95z M140.52,31.26v2.51
		c0.96-0.98,2.09-1.77,3.35-2.32c1.22-0.52,2.53-0.78,3.85-0.77c2.97,0,5.5,1.12,7.58,3.37s3.12,5.13,3.12,8.65
		c0,3.39-1.08,6.23-3.22,8.51c-2.82,3.18-7.34,4.27-11.3,2.72c-1.25-0.55-2.4-1.33-3.37-2.29v10.74h-5.67V31.26H140.52L140.52,31.26
		z M146.53,35.95c-1.8,0-3.29,0.61-4.48,1.84c-1.22,1.3-1.86,3.03-1.78,4.81c0,2.02,0.59,3.66,1.78,4.91
		c1.16,1.24,2.79,1.92,4.48,1.87c1.74,0,3.21-0.63,4.41-1.9s1.79-2.89,1.79-4.86c0-1.95-0.59-3.55-1.76-4.8
		S148.32,35.95,146.53,35.95z M191.93,27.43l-4.34,3.83c-1.52-2.12-3.08-3.18-4.66-3.18c-0.77,0-1.4,0.21-1.89,0.62
		s-0.73,0.88-0.73,1.39s0.17,1,0.52,1.46c0.48,0.61,1.91,1.93,4.3,3.96c1.4,1.13,2.76,2.31,4.07,3.54c1.19,1.2,2.03,2.35,2.53,3.44
		s0.74,2.29,0.74,3.59c0,2.53-0.87,4.61-2.62,6.26s-4.02,2.47-6.83,2.47c-2.19,0-4.1-0.54-5.73-1.61c-1.63-1.08-3.02-2.76-4.18-5.07
		l4.93-2.97c1.48,2.72,3.19,4.08,5.12,4.08c1.01,0,1.85-0.29,2.54-0.88c0.63-0.49,1.01-1.23,1.03-2.03c0-0.7-0.26-1.4-0.78-2.09
		c-0.52-0.7-1.66-1.76-3.42-3.2c-3.35-2.74-5.52-4.85-6.5-6.33c-0.92-1.3-1.43-2.85-1.47-4.45c0-2.14,0.81-3.97,2.44-5.5
		c1.63-1.53,3.8-2.35,6.03-2.29c1.54,0,3,0.36,4.39,1.07S190.31,25.55,191.93,27.43L191.93,27.43z M198.13,22.87h5.71v8.39h3.39
		v4.92h-3.39v17.86h-5.71V36.18h-2.93v-4.92h2.93C198.13,31.26,198.13,22.87,198.13,22.87z M220.99,30.68
		c2.15,0,4.17,0.54,6.06,1.61c3.74,2.09,6.05,6.06,6.02,10.35c0.03,6.59-5.29,11.97-11.88,12c-0.06,0-0.12,0-0.18,0
		c-3.27,0-6.05-1.16-8.36-3.49c-2.27-2.23-3.52-5.29-3.46-8.47c0-3.56,1.3-6.52,3.91-8.9C215.23,31.77,218.06,30.66,220.99,30.68z
		 M221.08,36.06c-1.78,0-3.25,0.62-4.43,1.85c-1.2,1.28-1.83,2.99-1.77,4.74c0,1.98,0.58,3.59,1.75,4.81
		c1.17,1.23,2.65,1.84,4.43,1.84s3.28-0.62,4.47-1.86c1.21-1.29,1.85-3.02,1.78-4.79c0-1.95-0.58-3.54-1.75-4.76
		S222.9,36.06,221.08,36.06z M236.4,31.26h4.9v2.87c0.46-1.04,1.19-1.93,2.11-2.58c1.55-1.05,3.55-1.16,5.21-0.29l-1.78,4.92
		c-0.51-0.28-1.07-0.46-1.65-0.5c-0.88,0-1.62,0.54-2.23,1.63s-0.91,3.22-0.91,6.41l0.02,1.11v9.21h-5.67L236.4,31.26L236.4,31.26z
		 M274.26,44.31H255.9c0.2,1.51,0.96,2.88,2.12,3.86c1.25,0.99,2.82,1.5,4.41,1.43c2.14,0,3.97-0.75,5.51-2.24l4.81,2.26
		c-1.2,1.7-2.64,2.96-4.31,3.78s-3.66,1.22-5.97,1.22c-3.57,0-6.48-1.13-8.73-3.38c-2.24-2.24-3.46-5.3-3.37-8.47
		c0-3.47,1.12-6.36,3.36-8.66c2.2-2.28,5.26-3.53,8.43-3.44c3.59,0,6.5,1.15,8.75,3.44c2.25,2.3,3.37,5.33,3.37,9.1
		C274.28,43.21,274.26,44.31,274.26,44.31z M268.55,39.8c-0.37-1.26-1.16-2.35-2.23-3.1c-1.13-0.8-2.49-1.22-3.87-1.19
		c-1.59,0-2.99,0.45-4.19,1.34c-0.93,0.8-1.65,1.81-2.1,2.95C256.16,39.8,268.55,39.8,268.55,39.8z"/>
</g>
<path class="st0" d="M51.13,24.87c-4.74,2.66-7.23,8.06-6.19,13.39c0.33,2.22,1.28,4.3,2.74,6.01c1.6,1.79,3.04,2.86,5.47,4.44
	c-0.12,4.77-6.54,14-9.72,16.23c-6.11,4.28-12.38-2.25-19.04-0.57c-6.11,1.54-10.07,4.7-15.27-1.53c-2.77-3.32-4.79-7.39-6.25-11.43
	c-4.21-11.61-5.98-32.8,10.69-34.83c4.5-0.55,6.42,0.92,9.96,2.81c4.13,2.21,6.21,0.06,9.97-1.47
	C39.55,15.45,49.94,16.53,51.13,24.87z M39.46,1c0,0-13.41,0.12-12.81,14.82C26.65,15.82,39.1,15.82,39.46,1z"/>
</svg>
