<svg xmlns="http://www.w3.org/2000/svg" viewBox="0 0 139 125"><path d="M36.37 102.37l1.01 7.3.96 7.31.09.7-.64-.33-14.65-7.57-14.59-7.68-1.43-.75 1.39-.89L26.1 89.23 43.75 78.1l3.76-2.37-1.73 4.11-6.9 16.36-1.36-2.04c6.3-.07 12.59-.31 18.86-.78a174.5 174.5 0 0 0 18.68-2.31 113.86 113.86 0 0 0 18.09-4.78c5.82-2.16 11.42-4.99 16.19-8.87 4.8-3.82 8.6-8.88 10.6-14.69 2.05-5.8 2.23-12.17 1.31-18.31a70.42 70.42 0 0 0-5.43-17.95 95.23 95.23 0 0 0-4.26-8.44 87.75 87.75 0 0 0-5.03-8.03 91.46 91.46 0 0 1 10.08 16.11c2.78 5.71 5.06 11.73 6.19 18.07 1.1 6.3 1.1 12.98-.94 19.21a34.77 34.77 0 0 1-10.94 15.96c-5 4.2-10.83 7.21-16.82 9.52a108.2 108.2 0 0 1-18.53 5.07c-12.58 2.35-25.34 3.08-38.05 3.17l-2.24.02.88-2.06 7.02-16.31 2.03 1.74L27.4 91.34 9.5 102.07l-.05-1.64 14.37 8.08 14.31 8.19-.55.37-.64-7.34-.57-7.36z" fill="#fff"/></svg>