<svg id="Layer_1" xmlns="http://www.w3.org/2000/svg" viewBox="0 0 218 211"><style>.st0{fill:#fff}</style><path class="st0" d="M214.58 138.31H3.47c-2.01 0-3.64-1.63-3.64-3.64V14.56C-.17 6.53 6.36 0 14.39 0h189.26c8.03 0 14.56 6.53 14.56 14.56v120.11c.01 2.01-1.62 3.64-3.63 3.64zM7.11 131.03h203.83V14.56c0-4.02-3.27-7.28-7.28-7.28H14.39c-4.01 0-7.28 3.26-7.28 7.28v116.47z"/><path class="st0" d="M203.65 167.43H14.39c-8.03 0-14.56-6.53-14.56-14.56v-18.2c0-2.01 1.63-3.64 3.64-3.64h211.11c2.01 0 3.64 1.63 3.64 3.64v18.2c0 8.03-6.54 14.56-14.57 14.56zM7.11 138.31v14.56c0 4.02 3.27 7.28 7.28 7.28h189.26c4.01 0 7.28-3.26 7.28-7.28v-14.56H7.11z"/><path class="st0" d="M119.94 152.87H98.1c-2.01 0-3.64-1.63-3.64-3.64s1.63-3.64 3.64-3.64h21.84c2.01 0 3.64 1.63 3.64 3.64s-1.63 3.64-3.64 3.64zM200.02 138.31H18.03c-2.01 0-3.64-1.63-3.64-3.64V18.2c0-2.01 1.63-3.64 3.64-3.64h181.99c2.01 0 3.64 1.63 3.64 3.64v116.47c0 2.01-1.63 3.64-3.64 3.64zm-178.35-7.28h174.71V21.84H21.67v109.19zM156.34 211.11H61.7c-6.02 0-10.92-4.9-10.92-10.92s4.9-10.92 10.92-10.92h94.64c6.02 0 10.92 4.9 10.92 10.92s-4.9 10.92-10.92 10.92zM61.7 196.55c-2.01 0-3.64 1.63-3.64 3.64 0 2.01 1.63 3.64 3.64 3.64h94.64c2.01 0 3.64-1.63 3.64-3.64 0-2.01-1.63-3.64-3.64-3.64H61.7z"/><path class="st0" d="M149.06 196.55H68.98c-2.01 0-3.64-1.63-3.64-3.64s1.63-3.64 3.64-3.64c12.08 0 18.2-8.57 18.2-25.48 0-2.01 1.63-3.64 3.64-3.64h36.4c2.01 0 3.64 1.63 3.64 3.64 0 16.91 6.12 25.48 18.2 25.48 2.01 0 3.64 1.63 3.64 3.64s-1.63 3.64-3.64 3.64zm-62.35-7.28h44.62c-4.48-4.96-7.12-12.36-7.65-21.84H94.36c-.53 9.48-3.17 16.88-7.65 21.84zM167.06 121.34c-.48 0-.95-.19-1.29-.53l-4.4-4.4-2.58 2.58c-.45.45-1.12.63-1.74.48-.62-.16-1.12-.63-1.3-1.25l-5.47-18.23c-.19-.64-.02-1.34.46-1.81.47-.47 1.17-.65 1.81-.46l18.23 5.47c.61.19 1.09.68 1.24 1.3.16.62-.03 1.28-.48 1.74l-2.45 2.45 4.4 4.4c.71.71.71 1.87 0 2.58l-5.16 5.16c-.32.33-.78.52-1.27.52zm-5.69-9.11c.61 0 1.22.23 1.68.7l4.01 4.01 2.58-2.58-4.23-4.23c-.39-.39-.61-.91-.61-1.46 0-.55.21-1.07.6-1.46l1.41-1.41-12.07-3.62 3.62 12.07 1.32-1.32c.47-.47 1.08-.7 1.69-.7z"/><path class="st0" d="M148.8 105.45H53.97c-4.64 0-8.28-2.53-8.28-5.75V42.31c0-3.23 3.64-5.75 8.28-5.75h94.83c4.64 0 8.28 2.53 8.28 5.75V99.7c-.01 3.22-3.64 5.75-8.28 5.75zM53.97 40.66c-2.74 0-4.17 1.22-4.17 1.64v57.4c0 .42 1.43 1.64 4.17 1.64h94.83c2.74 0 4.17-1.22 4.17-1.64V42.31c0-.42-1.43-1.64-4.17-1.64H53.97z"/><path transform="matrix(1 -.00346 .00346 1 -.1946 .352)" class="st0" d="M48.12 54.34h106.9v4.11H48.12z"/><circle class="st0" cx="56.32" cy="48.12" r="2.41"/><circle class="st0" cx="64.91" cy="48.12" r="2.41"/><circle class="st0" cx="73.31" cy="48.12" r="2.41"/><path class="st0" d="M60.96 78.8c-3.17 0-5.76-2.58-5.76-5.76 0-3.17 2.58-5.76 5.76-5.76 3.17 0 5.76 2.58 5.76 5.76 0 3.18-2.59 5.76-5.76 5.76zm0-9.27c-1.94 0-3.52 1.58-3.52 3.52s1.58 3.52 3.52 3.52 3.52-1.58 3.52-3.52-1.58-3.52-3.52-3.52zM60.77 95.07c-3.17 0-5.76-2.58-5.76-5.76 0-3.17 2.58-5.76 5.76-5.76 3.17 0 5.76 2.58 5.76 5.76 0 3.18-2.58 5.76-5.76 5.76zm0-9.27c-1.94 0-3.52 1.58-3.52 3.52s1.58 3.52 3.52 3.52 3.52-1.58 3.52-3.52-1.58-3.52-3.52-3.52zM141.93 74.88H73.11c-.6 0-1.09-.49-1.09-1.09v-2.3c0-.6.49-1.09 1.09-1.09h68.82c.6 0 1.09.49 1.09 1.09v2.3c0 .6-.49 1.09-1.09 1.09zM141.93 91.56H73.11c-.6 0-1.09-.49-1.09-1.09v-2.3c0-.6.49-1.09 1.09-1.09h68.82c.6 0 1.09.49 1.09 1.09v2.3c0 .6-.49 1.09-1.09 1.09z"/></svg>