<?xml version="1.0" encoding="utf-8"?>
<!-- Generator: Adobe Illustrator 23.0.0, SVG Export Plug-In . SVG Version: 6.00 Build 0)  -->
<svg version="1.1" id="Layer_1" xmlns="http://www.w3.org/2000/svg" xmlns:xlink="http://www.w3.org/1999/xlink" x="0px" y="0px"
	 viewBox="0 0 63.64 63.67" style="enable-background:new 0 0 63.64 63.67;" xml:space="preserve">
<style type="text/css">
	.st0{fill:#FFFFFF;}
</style>
<g>
	<g>
		<path class="st0" d="M31.82,0C14.22,0,0,14.26,0,31.85c0,17.56,14.23,31.82,31.82,31.82c17.56,0,31.82-14.26,31.82-31.82
			C63.65,14.26,49.39,0,31.82,0z M41.15,18.16c0,0.28-0.22,0.5-0.5,0.5h-4.06c-1,0-1.81,0.81-1.81,1.81v4.24h5.77
			c0.28,0,0.53,0.25,0.5,0.53l-0.5,5.99c-0.03,0.25-0.25,0.47-0.5,0.47h-5.27v19.81c0,0.28-0.22,0.5-0.5,0.5h-7.24
			c-0.28,0-0.5-0.22-0.5-0.5V31.7h-3.62c-0.28,0-0.53-0.25-0.53-0.53v-5.96c0-0.28,0.25-0.5,0.53-0.5h3.62v-5.77
			c0-3.99,3.24-7.27,7.27-7.27h6.83c0.28,0,0.5,0.25,0.5,0.53L41.15,18.16L41.15,18.16z"/>
	</g>
</g>
</svg>
