<?xml version="1.0" encoding="utf-8"?>
<!-- Generator: Adobe Illustrator 23.0.0, SVG Export Plug-In . SVG Version: 6.00 Build 0)  -->
<svg version="1.1" id="Layer_1" xmlns="http://www.w3.org/2000/svg" xmlns:xlink="http://www.w3.org/1999/xlink" x="0px" y="0px"
	 viewBox="0 0 242 241" style="enable-background:new 0 0 242 241;" xml:space="preserve">
<style type="text/css">
	.st0{fill:#00A0DF;}
</style>
<g>
	<g>
		<path class="st0" d="M120.09,0.66C54,0.66,0.57,54.21,0.57,120.3c0,65.97,53.43,119.52,119.52,119.52
			c65.97,0,119.52-53.55,119.52-119.52C239.62,54.21,186.06,0.66,120.09,0.66z M155.13,68.86c0,1.06-0.82,1.88-1.88,1.88h-15.23
			c-3.75,0-6.8,3.05-6.8,6.79v15.94h21.68c1.05,0,1.99,0.94,1.87,1.99l-1.87,22.5c-0.12,0.94-0.94,1.76-1.88,1.76h-19.8v74.41
			c0,1.05-0.82,1.88-1.87,1.88h-27.19c-1.05,0-1.87-0.82-1.87-1.88v-74.41H86.7c-1.05,0-1.99-0.94-1.99-1.99V95.34
			c0-1.05,0.94-1.87,1.99-1.87h13.59V71.79c0-15,12.19-27.3,27.3-27.3h25.66c1.05,0,1.88,0.94,1.88,1.99V68.86z"/>
	</g>
</g>
</svg>
