<?xml version="1.0" encoding="utf-8"?>
<!-- Generator: Adobe Illustrator 23.0.0, SVG Export Plug-In . SVG Version: 6.00 Build 0)  -->
<svg version="1.1" id="Layer_1" xmlns="http://www.w3.org/2000/svg" xmlns:xlink="http://www.w3.org/1999/xlink" x="0px" y="0px"
	 viewBox="0 0 513 532" style="enable-background:new 0 0 513 532;" xml:space="preserve">
<style type="text/css">
	.st0{fill:#808080;}
	.st1{fill-rule:evenodd;clip-rule:evenodd;fill:#FFFFFF;}
</style>
<g>
	<g>
		
			<ellipse transform="matrix(0.7071 -0.7071 0.7071 0.7071 -119.625 261.8324)" class="st0" cx="256.25" cy="275.32" rx="242.75" ry="242.75"/>
		<path class="st1" d="M216.02,276.53v148.68c0,2.14,1.73,3.87,3.87,3.87h55.21c2.14,0,3.87-1.73,3.87-3.87v-151.1H319
			c2.01,0,3.69-1.54,3.86-3.55l3.85-45.53c0.19-2.26-1.59-4.2-3.86-4.2h-43.88v-32.3c0-7.57,6.14-13.71,13.71-13.71h30.85
			c2.14,0,3.87-1.73,3.87-3.87v-45.53c0-2.14-1.73-3.87-3.87-3.87h-52.13c-30.59,0-55.39,24.8-55.39,55.39v43.89h-27.61
			c-2.14,0-3.87,1.73-3.87,3.87v45.53c0,2.14,1.73,3.87,3.87,3.87h27.61V276.53z"/>
	</g>
</g>
</svg>
