<?xml version="1.0" encoding="utf-8"?>
<!-- Generator: Adobe Illustrator 23.0.0, SVG Export Plug-In . SVG Version: 6.00 Build 0)  -->
<svg version="1.1" id="Layer_1" xmlns="http://www.w3.org/2000/svg" xmlns:xlink="http://www.w3.org/1999/xlink" x="0px" y="0px"
	 viewBox="0 0 278 68" style="enable-background:new 0 0 278 68;" xml:space="preserve">
<style type="text/css">
	.st0{fill:#FFFFFF;}
</style>
<path class="st0" d="M75.78,13.6c0,1.06-0.18,2.03-0.54,2.93c-0.36,0.88-0.84,1.65-1.49,2.3c-0.65,0.65-1.42,1.13-2.32,1.49
	c-0.9,0.36-1.91,0.54-3,0.54h-5.52V6.36h5.52c1.1,0,2.1,0.18,3,0.54c0.9,0.36,1.67,0.86,2.32,1.49s1.13,1.4,1.49,2.28
	C75.6,11.57,75.78,12.54,75.78,13.6z M73.01,13.6c0-0.79-0.11-1.51-0.32-2.14c-0.22-0.63-0.52-1.17-0.92-1.6
	c-0.4-0.43-0.88-0.77-1.44-1.01s-1.2-0.36-1.91-0.36h-2.82v10.21h2.82c0.7,0,1.35-0.11,1.91-0.36c1.14-0.47,2-1.43,2.35-2.61
	C72.9,15.11,73.01,14.41,73.01,13.6z M80.87,20.85h-2.71V6.36h2.71V20.85z M91.81,9c-0.07,0.14-0.16,0.23-0.25,0.31
	c-0.09,0.07-0.2,0.09-0.34,0.09c-0.16-0.01-0.32-0.06-0.45-0.16c-0.44-0.27-0.9-0.5-1.38-0.68c-0.35-0.11-0.71-0.17-1.08-0.16
	c-0.38,0-0.7,0.04-0.99,0.14c-0.29,0.09-0.52,0.22-0.7,0.38c-0.19,0.15-0.34,0.35-0.43,0.58c-0.09,0.22-0.14,0.47-0.14,0.74
	c0,0.34,0.09,0.63,0.29,0.84s0.45,0.41,0.75,0.58s0.67,0.31,1.08,0.43l1.24,0.41c0.41,0.14,0.83,0.31,1.24,0.5s0.75,0.43,1.08,0.72
	c0.31,0.29,0.56,0.65,0.75,1.06c0.39,1.09,0.37,2.28-0.05,3.36c-0.22,0.58-0.56,1.06-0.99,1.49c-0.43,0.43-0.95,0.75-1.58,1.01
	c-1.57,0.52-3.27,0.46-4.8-0.16c-0.79-0.31-1.51-0.78-2.12-1.38l0.79-1.29c0.07-0.09,0.16-0.18,0.27-0.23
	c0.1-0.07,0.22-0.1,0.34-0.09c0.16,0,0.34,0.07,0.54,0.2l0.68,0.45c0.66,0.44,1.44,0.66,2.23,0.65c0.77,0,1.37-0.18,1.78-0.54
	c0.41-0.36,0.63-0.88,0.63-1.56c0-0.38-0.09-0.68-0.29-0.93c-0.2-0.25-0.45-0.45-0.75-0.61c-0.34-0.18-0.7-0.32-1.08-0.41
	c-0.83-0.23-1.65-0.52-2.44-0.86c-0.4-0.18-0.76-0.43-1.08-0.74c-0.73-0.74-1.11-1.76-1.04-2.8c0.01-1.09,0.45-2.13,1.24-2.88
	c0.4-0.4,0.9-0.7,1.49-0.93c1.43-0.48,2.98-0.47,4.4,0.04c0.72,0.27,1.33,0.65,1.85,1.11C92.5,7.64,91.81,9,91.81,9z M99.79,6.36
	c0.97,0,1.82,0.11,2.52,0.34s1.29,0.54,1.76,0.95c0.47,0.41,0.81,0.9,1.02,1.46s0.34,1.19,0.34,1.87c0,0.7-0.11,1.35-0.34,1.92
	c-0.23,0.59-0.59,1.08-1.06,1.51c-0.47,0.41-1.06,0.75-1.76,0.99c-0.7,0.23-1.53,0.36-2.46,0.36H97.8v5.1h-2.7V6.36H99.79z
	 M99.79,13.66c0.49,0,0.92-0.05,1.29-0.18c0.36-0.13,0.67-0.31,0.92-0.54c0.25-0.23,0.43-0.5,0.54-0.84
	c0.11-0.34,0.18-0.7,0.18-1.11c0.04-0.7-0.23-1.38-0.72-1.87c-0.23-0.23-0.54-0.4-0.92-0.5c-0.36-0.11-0.81-0.18-1.29-0.18h-2.01
	v5.19h2.01V13.66z M121.31,13.6c0,1.06-0.18,2.05-0.52,2.95c-0.65,1.79-2.04,3.2-3.81,3.9c-0.9,0.36-1.91,0.56-3,0.56
	c-1.1,0-2.1-0.18-3-0.56c-1.75-0.72-3.13-2.13-3.81-3.9c-0.36-0.9-0.54-1.89-0.54-2.95c-0.05-1.97,0.68-3.88,2.03-5.3
	c0.66-0.67,1.45-1.2,2.32-1.55c1.62-0.62,3.39-0.73,5.07-0.31c1.22,0.32,2.34,0.96,3.24,1.85c0.88,0.91,1.5,2.04,1.78,3.27
	C121.24,12.22,121.31,12.9,121.31,13.6z M118.56,13.6c0-0.79-0.11-1.51-0.32-2.14c-0.22-0.63-0.52-1.17-0.92-1.6
	c-0.4-0.44-0.89-0.79-1.44-1.01c-0.56-0.23-1.2-0.34-1.91-0.34c-0.7,0-1.35,0.11-1.91,0.34c-1.14,0.47-2,1.43-2.35,2.61
	c-0.22,0.63-0.32,1.35-0.32,2.14c0,0.79,0.11,1.51,0.32,2.14s0.52,1.17,0.92,1.6s0.88,0.77,1.44,1.01c0.56,0.23,1.2,0.36,1.91,0.36
	c0.7,0,1.35-0.11,1.91-0.36c1.14-0.47,2-1.43,2.35-2.61C118.45,15.11,118.56,14.41,118.56,13.6z M135.9,6.36v14.49h-1.38
	c-0.22,0-0.4-0.04-0.54-0.11c-0.14-0.07-0.29-0.18-0.41-0.36L126,10.73l0.05,1.22v8.9h-2.37V6.36h1.42c0.17-0.01,0.34,0.02,0.5,0.07
	l0.18,0.13l0.2,0.23l7.6,9.71l-0.05-0.68l-0.02-0.63V6.38h2.39V6.36z M141.84,20.85h-2.71V6.36h2.71V20.85z M150.05,6.36
	c0.95,0,1.76,0.09,2.43,0.27c0.68,0.18,1.22,0.43,1.65,0.77c0.43,0.34,0.75,0.74,0.95,1.2c0.33,0.82,0.39,1.72,0.16,2.57
	c-0.09,0.31-0.25,0.59-0.47,0.86s-0.49,0.52-0.81,0.74s-0.72,0.41-1.15,0.56c2,0.45,2.98,1.53,2.98,3.22
	c0.05,1.18-0.45,2.31-1.37,3.06c-0.45,0.38-1.01,0.67-1.65,0.88c-0.65,0.22-1.4,0.32-2.25,0.32h-5.46V6.36
	C145.07,6.36,150.05,6.36,150.05,6.36z M147.77,8.45v4.19h2.14c0.92,0,1.62-0.16,2.09-0.5s0.7-0.86,0.7-1.6
	c0-0.75-0.22-1.29-0.65-1.62c-0.43-0.32-1.1-0.49-2-0.49h-2.28L147.77,8.45z M150.48,18.75c0.5,0,0.92-0.05,1.26-0.18
	c0.34-0.13,0.61-0.29,0.81-0.49c0.2-0.2,0.34-0.43,0.45-0.7c0.19-0.55,0.19-1.14,0-1.69c-0.1-0.25-0.26-0.47-0.47-0.65
	c-0.22-0.18-0.49-0.31-0.83-0.41c-0.4-0.1-0.81-0.15-1.22-0.14h-2.71v4.24h2.71L150.48,18.75z M166.75,18.64v2.23h-8.48V6.36h2.7
	v12.26h5.79V18.64z M171.39,8.52v4.03h5.07v2.07h-5.07v4.1h6.43v2.16h-9.13V6.36h9.13V8.5h-6.43V8.52z M187.78,8.52v4.03h5.07v2.07
	h-5.07v4.1h6.43v2.16h-9.13V6.36h9.13V8.5h-6.43V8.52z M208.81,6.36v14.49h-1.38c-0.19,0.01-0.37-0.03-0.54-0.11
	c-0.17-0.08-0.31-0.21-0.41-0.36l-7.57-9.65l0.05,1.22v8.9h-2.37V6.36h1.42c0.17-0.01,0.34,0.02,0.5,0.07l0.18,0.13l0.2,0.23
	l7.6,9.71l-0.05-0.68l-0.02-0.63V6.38h2.39L208.81,6.36z"/>
<g>
	<path class="st0" d="M84.81,30.87l-3.5,3.46c-1.96-2.23-4.78-3.5-7.74-3.51c-2.57,0-4.72,0.85-6.45,2.55
		c-1.7,1.62-2.64,3.87-2.6,6.21c0,2.52,0.9,4.65,2.7,6.4c1.77,1.74,4.18,2.69,6.66,2.63c1.72,0,3.16-0.36,4.34-1.08
		c1.27-0.82,2.26-2,2.85-3.39h-7.56v-4.67h13.13l0.04,1.1c0,2.28-0.59,4.45-1.77,6.49c-1.08,1.95-2.66,3.56-4.59,4.68
		c-2.03,1.11-4.31,1.67-6.62,1.61c-2.53,0.04-5.02-0.56-7.25-1.76c-2.12-1.18-3.8-2.85-5.04-5.03s-1.85-4.52-1.85-7.04
		c-0.05-3.33,1.18-6.55,3.42-9.01c2.71-3.04,6.23-4.56,10.57-4.56c2.27,0,4.39,0.42,6.37,1.26C81.58,27.93,83.21,29.15,84.81,30.87z
		 M99.77,32.91c3.66-0.01,7.04,1.93,8.89,5.08c0.89,1.54,1.36,3.28,1.35,5.06c0.04,5.58-4.45,10.13-10.03,10.17
		c-0.06,0-0.13,0-0.19,0c-2.67,0.04-5.24-1.03-7.09-2.95c-1.93-1.89-2.99-4.48-2.94-7.18c-0.06-2.88,1.16-5.64,3.32-7.54
		C94.89,33.84,97.28,32.9,99.77,32.91z M99.85,37.47c-1.5,0-2.76,0.52-3.76,1.57c-1.01,1.09-1.55,2.53-1.5,4.02
		c0,1.68,0.49,3.04,1.48,4.08s2.24,1.56,3.76,1.56c1.52,0,2.78-0.53,3.79-1.58s1.51-2.41,1.51-4.06s-0.49-3-1.48-4.04
		C102.66,37.99,101.28,37.43,99.85,37.47z M123.02,32.91c3.66-0.01,7.04,1.93,8.89,5.08c0.89,1.54,1.36,3.28,1.35,5.06
		c0.04,5.58-4.45,10.13-10.03,10.17c-0.06,0-0.13,0-0.19,0c-2.67,0.04-5.24-1.03-7.09-2.95c-1.93-1.89-2.99-4.48-2.94-7.18
		c-0.06-2.88,1.16-5.64,3.32-7.54C118.14,33.84,120.53,32.9,123.02,32.91L123.02,32.91z M123.1,37.47c-1.5,0-2.76,0.52-3.76,1.57
		c-1.01,1.09-1.55,2.53-1.5,4.02c0,1.68,0.49,3.04,1.48,4.08s2.24,1.56,3.76,1.56c1.52,0,2.78-0.53,3.79-1.58s1.51-2.41,1.51-4.06
		s-0.49-3-1.48-4.04C125.91,37.99,124.53,37.43,123.1,37.47z M151.48,33.41h4.83v16.53c0,3.26-0.66,5.67-1.97,7.2
		c-1.76,2.08-4.42,3.12-7.97,3.12c-1.89,0-3.48-0.24-4.77-0.71c-1.23-0.43-2.35-1.15-3.26-2.08c-0.9-0.95-1.58-2.09-1.97-3.34h5.34
		c0.47,0.54,1.08,0.96,1.83,1.23c0.75,0.28,1.63,0.42,2.64,0.42c1.08,0.04,2.15-0.16,3.14-0.6c0.79-0.4,1.35-0.92,1.68-1.56
		c0.32-0.64,0.49-1.74,0.49-3.3c-0.76,0.79-1.67,1.41-2.68,1.84c-0.93,0.37-1.99,0.56-3.18,0.56c-2.49,0.05-4.87-0.97-6.56-2.8
		c-1.81-1.91-2.77-4.47-2.68-7.1c0-3.06,0.95-5.52,2.84-7.38c1.62-1.64,3.84-2.55,6.14-2.52c1.11,0,2.16,0.2,3.15,0.61
		c1.1,0.49,2.11,1.17,2.97,2.01v-2.13L151.48,33.41z M146.46,37.44c-1.53,0-2.79,0.51-3.78,1.54c-1,1.03-1.53,2.43-1.49,3.86
		c0,1.61,0.51,2.93,1.53,3.96c1.01,1.02,2.39,1.58,3.83,1.54c1.5,0,2.74-0.5,3.72-1.51s1.46-2.32,1.46-3.96
		c0.2-2.8-1.91-5.23-4.71-5.42C146.83,37.44,146.65,37.43,146.46,37.44z M160.67,25.96h4.84v26.75h-4.84V25.96z M189.25,44.46
		h-15.56c0.17,1.28,0.81,2.44,1.8,3.27c1.06,0.84,2.38,1.26,3.73,1.21c1.81,0,3.36-0.63,4.67-1.9l4.08,1.92
		c-0.93,1.36-2.19,2.46-3.66,3.2c-1.42,0.69-3.1,1.04-5.06,1.04c-3.03,0-5.49-0.96-7.4-2.87s-2.86-4.3-2.86-7.18
		c0-2.95,0.95-5.39,2.85-7.34c1.86-1.93,4.46-2.99,7.14-2.92c3.04,0,5.51,0.97,7.42,2.92c1.9,1.95,2.86,4.52,2.86,7.71L189.25,44.46
		L189.25,44.46z M184.4,40.65c-0.31-1.06-0.98-1.99-1.89-2.62c-0.96-0.68-2.11-1.03-3.28-1.01c-1.35,0-2.54,0.38-3.55,1.14
		c-0.79,0.68-1.4,1.53-1.78,2.5h10.5V40.65z M203.85,26.61h5.27c2.85,0,4.91,0.26,6.16,0.79c1.24,0.51,2.28,1.41,2.98,2.55
		c0.75,1.28,1.13,2.75,1.09,4.23c0,1.82-0.48,3.33-1.43,4.54c-0.99,1.24-2.35,2.12-3.88,2.52c-0.96,0.27-2.7,0.41-5.23,0.41V52.7
		h-4.97L203.85,26.61L203.85,26.61z M208.81,36.81h1.58c1.24,0,2.1-0.09,2.59-0.27c0.48-0.18,0.87-0.47,1.14-0.88
		c0.28-0.41,0.42-0.9,0.42-1.49c0-1.01-0.39-1.74-1.17-2.21c-0.57-0.34-1.62-0.52-3.16-0.52h-1.4V36.81z M223.15,25.96h4.84v26.75
		h-4.84V25.96z M246.63,33.41h4.84v19.3h-4.84v-2.04c-0.82,0.82-1.78,1.47-2.84,1.94c-3.36,1.3-7.17,0.38-9.56-2.31
		c-1.83-1.95-2.81-4.54-2.73-7.21c0-2.98,0.88-5.42,2.64-7.33c1.62-1.84,3.96-2.88,6.41-2.86c1.16,0,2.24,0.22,3.26,0.66
		c1.06,0.46,2.02,1.13,2.82,1.97L246.63,33.41L246.63,33.41z M241.54,37.38c-1.5,0-2.74,0.53-3.73,1.59
		c-1.01,1.11-1.54,2.57-1.48,4.07c0,1.67,0.5,3.04,1.51,4.12s2.25,1.61,3.72,1.61c1.52,0,2.78-0.53,3.78-1.59
		c1.03-1.13,1.57-2.63,1.5-4.16c0-1.68-0.5-3.04-1.5-4.08C244.35,37.9,242.97,37.34,241.54,37.38z M254.23,33.41h4.95l5.01,12.11
		l5.53-12.11h4.96L262.6,59.77h-5l3.97-8.5L254.23,33.41L254.23,33.41z"/>
</g>
<g>
	<path class="st0" d="M36.81,29.82l-7.69,7.51L5.17,12.78c1.7,0.63,3.45,2.02,3.45,2.02L36.81,29.82z M27.93,38.48l-25,24.41
		C2.02,61.93,2,60.31,2,60.31V14.8c0-1.13,0.31-1.77,0.79-2.09L27.93,38.48z M29.09,39.67l6.68,6.84L15.52,58.1
		c-3.56,2.48-6.21,3.43-8.11,4.53c-0.84,0.55-1.81,0.88-2.82,0.94L29.09,39.67z M46.41,40.42l-9.16,5.25l-6.98-7.15l8.08-7.88
		l8.06,4.29C52.48,37.42,46.41,40.42,46.41,40.42z"/>
</g>
</svg>
