<?xml version="1.0" encoding="utf-8"?>
<!-- Generator: Adobe Illustrator 23.0.0, SVG Export Plug-In . SVG Version: 6.00 Build 0)  -->
<svg version="1.1" id="Layer_1" xmlns="http://www.w3.org/2000/svg" xmlns:xlink="http://www.w3.org/1999/xlink" x="0px" y="0px"
	 viewBox="0 0 57 90" style="enable-background:new 0 0 57 90;" xml:space="preserve">
<style type="text/css">
	.st0{fill:#FFFFFF;}
</style>
<g>
	<path class="st0" d="M0.19,33.05v56.47h57V33.05H0.19z M23.51,70.52l2.2-12.15c-0.08-0.08-0.16-0.16-0.23-0.25
		c-0.84-0.95-1.35-2.2-1.35-3.57c0-0.55,0.08-1.08,0.23-1.59c0.68-2.22,2.75-3.84,5.2-3.84c2.36,0,4.38,1.52,5.11,3.64
		c0.2,0.56,0.31,1.16,0.31,1.79c0,1.29-0.46,2.48-1.22,3.41c-0.15,0.19-0.32,0.37-0.5,0.54l3.31,12.02H23.51z"/>
	<path class="st0" d="M44.7,16.11c-0.79-5.55-3.01-9.69-6.59-12.31c-4.73-3.46-10.19-2.95-11.27-2.81
		C15.2,1.57,12.12,11.36,12.12,16.48l0.23,16.57l0.34,25.33l12.79-0.26c-0.84-0.95-1.35-2.2-1.35-3.57c0-0.55,0.08-1.08,0.23-1.59
		l-6.56,0.13l-0.27-20.04L17.3,16.47c0.01-0.57,0.21-9.89,9.89-10.31l0.3-0.03c0.04,0,4.23-0.61,7.6,1.88
		c2.35,1.75,3.85,4.66,4.45,8.66v35.99l-4.87,0.1c0.2,0.56,0.31,1.16,0.31,1.79c0,1.29-0.46,2.48-1.22,3.41l10.97-0.22V16.48
		L44.7,16.11z"/>
</g>
</svg>
