<svg id="Layer_1" xmlns="http://www.w3.org/2000/svg" viewBox="0 0 218 211"><style>.st0{fill:#fff}</style><path class="st0" d="M108.64.76C50.94.76 4 47.7 4 105.4s46.94 104.64 104.64 104.64S213.29 163.1 213.29 105.4 166.34.76 108.64.76zm0 194.2c-49.38 0-89.56-40.18-89.56-89.56 0-49.39 40.18-89.56 89.56-89.56 49.39 0 89.56 40.17 89.56 89.56 0 49.38-40.17 89.56-89.56 89.56z"/><path class="st0" d="M131.36 82.61V61.77l-.06-.91c-1.12-7.87-4.34-13.8-9.57-17.62-6.74-4.93-14.31-4.41-16.37-4.14-15.7.86-21.42 13.99-21.42 22.67l.29 20.84H72.15v71.01h71.69V82.61h-12.48zm-29.88 47.12l2.25-12.38.52-2.89a6.802 6.802 0 0 1-1.99-4.82c0-2.1.95-3.98 2.45-5.24a6.781 6.781 0 0 1 4.37-1.58c1.56 0 3 .52 4.15 1.41a6.792 6.792 0 0 1 2.68 5.41c0 1.96-.84 3.74-2.17 4.98l.69 2.52 3.47 12.59h-16.42zm-4.32-47.12l-.29-20.83c.06-2.27.92-9.41 9.37-9.78l.79-.08c.04-.01 4-.5 7.06 1.75 2.24 1.63 3.7 4.52 4.35 8.59v20.35H97.16z"/></svg>