<svg id="Layer_1" xmlns="http://www.w3.org/2000/svg" viewBox="0 0 1280 1080"><style>.st2{fill:#fff}</style><linearGradient id="SVGID_1_" gradientUnits="userSpaceOnUse" x1="2.52" y1="535.96" x2="1280" y2="535.96"><stop offset=".11" stop-color="#ff9b00"/><stop offset=".97" stop-color="#ffbe1c"/></linearGradient><path fill="url(#SVGID_1_)" d="M2.52-7l.13 1085.43 62.9.48H1280V-7z"/><g opacity=".49"><path class="st2" d="M423.71 70.77a15.25 15.25 0 0 0-12.8 27.66 15.24 15.24 0 0 0 12.8-27.66zm-10.25 22.12a9.15 9.15 0 1 1 0 0z"/><path class="st2" d="M509.97 80.87l-146.1-67.64a1.13 1.13 0 0 0-1.49.55l-32.9 71.07c-.26.56-.01 1.23.55 1.49l146.1 67.64c.56.26 1.23.01 1.49-.55l32.9-71.07c.26-.56.01-1.23-.55-1.49zm-33.89 68.61c-.23.5-.85.73-1.35.49L333.98 84.81c-.5-.23-.73-.85-.49-1.35l30.43-65.73c.23-.5.85-.73 1.35-.49L506.02 82.4c.5.23.73.85.49 1.35l-30.43 65.73zm6.95-67.78l1.15-2.72-101.97-47.2-1.36 2.51c-2.44 4.5-8.22 6.22-13.16 3.94-.13-.06-.27-.11-.4-.2l-2.94-1.87-16.06 34.68 3.34 1.03c.15.04.27.11.41.18 5.17 2.39 7.54 8.29 5.29 13.15l-1.28 2.76 102.1 47.27 1.32-2.64c2.33-4.63 8.29-6.51 13.29-4.2l2.77 1.28 15.65-33.81-2.77-1.28c-5.08-2.36-7.44-8.01-5.38-12.88zm-10.58 40.11a16.04 16.04 0 0 0-16.84 5.51l-91.75-42.48c1.54-6.54-1.38-13.55-7.33-17.29l10.65-23c6.4 2.01 13.33.01 17.42-4.96l91.93 42.56a16.06 16.06 0 0 0 6.68 16.43l-10.76 23.23z"/><path class="st2" d="M508.58 76.87L367.83 11.7a7.11 7.11 0 0 0-9.44 3.47L327.95 80.9a7.12 7.12 0 0 0 3.47 9.44l140.76 65.17a7.12 7.12 0 0 0 9.44-3.47l30.43-65.73a7.12 7.12 0 0 0-3.47-9.44zm-32.5 72.61c-.23.5-.85.73-1.35.49L333.98 84.81c-.5-.23-.73-.85-.49-1.35l30.43-65.73c.23-.5.85-.73 1.35-.49L506.02 82.4c.5.23.73.85.49 1.35l-30.43 65.73z"/><g><path class="st2" d="M423.71 70.77a15.25 15.25 0 0 0-12.8 27.66 15.24 15.24 0 0 0 12.8-27.66zm-10.25 22.12a9.15 9.15 0 1 1 0 0z"/><path class="st2" d="M480.22 80.51l-96.69-44.77c-3.2 5.89-10.66 8.24-17.12 5.25-.25-.12-.51-.24-.76-.39l-13.12 28.35c.28.08.54.2.79.32 6.71 3.11 9.73 10.81 6.78 17.19l96.65 44.75c3.08-6.12 10.74-8.63 17.3-5.6l13.09-28.28c-6.56-3.03-9.6-10.5-6.92-16.82zm-7.77 41.3a16.04 16.04 0 0 0-16.84 5.51l-91.75-42.48c1.54-6.54-1.38-13.55-7.33-17.29l10.65-23c6.4 2.01 13.33.01 17.42-4.96l91.93 42.56a16.06 16.06 0 0 0 6.68 16.43l-10.76 23.23z"/><path class="st2" d="M488.42 94.57c-5.09-2.35-7.45-8.01-5.39-12.87l1.15-2.72-101.97-47.2-1.36 2.51c-2.44 4.5-8.22 6.22-13.16 3.94-.13-.06-.27-.11-.4-.2l-2.94-1.87-16.06 34.68 3.34 1.03c.15.04.27.11.41.18 5.17 2.39 7.54 8.29 5.29 13.15l-1.28 2.76 102.1 47.27 1.32-2.64c2.33-4.63 8.29-6.51 13.29-4.2l2.77 1.28 15.65-33.81-2.76-1.29zm-15.97 27.24a16.04 16.04 0 0 0-16.84 5.51l-91.75-42.48c1.54-6.54-1.38-13.55-7.33-17.29l10.65-23c6.4 2.01 13.33.01 17.42-4.96l91.93 42.56a16.06 16.06 0 0 0 6.68 16.43l-10.76 23.23z"/></g><g><path class="st2" d="M422.43 73.53a12.18 12.18 0 1 0-10.24 22.11 12.18 12.18 0 0 0 10.24-22.11zm-8.97 19.36a9.15 9.15 0 1 1 0 0z"/><path class="st2" d="M423.71 70.77a15.25 15.25 0 0 0-12.8 27.66 15.24 15.24 0 0 0 12.8-27.66zm-10.25 22.12a9.15 9.15 0 1 1 0 0z"/></g></g><g opacity=".07"><path class="st2" d="M133.22 507.54a15.18 15.18 0 0 0-20.13 7.39 15.18 15.18 0 0 0 7.39 20.13 15.18 15.18 0 0 0 12.74-27.52zm-10.19 22.01a9.12 9.12 0 0 1-4.44-12.08 9.1 9.1 0 1 1 4.44 12.08z"/><path class="st2" d="M219.06 517.59L73.7 450.29a1.12 1.12 0 0 0-1.48.54l-32.74 70.72c-.26.56-.01 1.22.54 1.48l145.36 67.3c.56.26 1.22.01 1.48-.54l32.74-70.72c.26-.55.01-1.22-.54-1.48zm-33.72 68.27c-.23.5-.84.72-1.34.49L43.95 521.51c-.5-.23-.72-.84-.49-1.34l30.28-65.4c.23-.5.84-.72 1.34-.49l140.05 64.84c.5.23.72.84.49 1.34l-30.28 65.4zm6.9-67.44l1.15-2.7-101.46-46.97-1.35 2.5c-2.43 4.47-8.18 6.19-13.09 3.92-.13-.06-.27-.11-.4-.2l-2.93-1.87-15.98 34.5 3.32 1.02c.15.04.27.11.4.17 5.14 2.38 7.5 8.25 5.26 13.08l-1.27 2.75 101.59 47.03 1.32-2.62c2.32-4.61 8.25-6.48 13.23-4.17l2.75 1.27 15.57-33.64-2.75-1.27c-5.05-2.33-7.41-7.96-5.36-12.8zm-10.52 39.91c-6.31-1.66-12.9.5-16.75 5.49l-91.29-42.27c1.54-6.5-1.37-13.48-7.29-17.2l10.6-22.89c6.37 2 13.26.01 17.33-4.94l91.47 42.35a15.95 15.95 0 0 0 6.65 16.34l-10.72 23.12z"/><path class="st2" d="M217.67 513.61L77.63 448.77a7.08 7.08 0 0 0-9.39 3.45l-30.28 65.4a7.08 7.08 0 0 0 3.45 9.39l140.05 64.84a7.08 7.08 0 0 0 9.39-3.45l30.28-65.4a7.1 7.1 0 0 0-3.46-9.39zm-32.33 72.25c-.23.5-.84.72-1.34.49L43.95 521.51c-.5-.23-.72-.84-.49-1.34l30.28-65.4c.23-.5.84-.72 1.34-.49l140.05 64.84c.5.23.72.84.49 1.34l-30.28 65.4z"/><g><path class="st2" d="M133.22 507.54a15.18 15.18 0 0 0-20.13 7.39 15.18 15.18 0 0 0 7.39 20.13 15.18 15.18 0 0 0 12.74-27.52zm-10.19 22.01a9.12 9.12 0 0 1-4.44-12.08 9.1 9.1 0 1 1 4.44 12.08z"/><path class="st2" d="M189.45 517.24L93.24 472.7c-3.18 5.86-10.61 8.2-17.03 5.22-.25-.12-.51-.24-.75-.39l-13.06 28.2c.27.08.53.2.79.32 6.68 3.09 9.68 10.75 6.74 17.11l96.17 44.52c3.06-6.08 10.69-8.59 17.21-5.57l13.03-28.13c-6.53-3.02-9.56-10.45-6.89-16.74zm-7.73 41.09c-6.31-1.66-12.9.5-16.75 5.49l-91.29-42.27c1.54-6.5-1.37-13.48-7.29-17.2l10.6-22.89c6.37 2 13.26.01 17.33-4.94l91.47 42.35a15.95 15.95 0 0 0 6.65 16.34l-10.72 23.12z"/><path class="st2" d="M197.61 531.23c-5.06-2.34-7.41-7.97-5.36-12.81l1.15-2.7-101.47-46.97-1.35 2.5c-2.43 4.47-8.18 6.19-13.09 3.92-.13-.06-.27-.11-.4-.2l-2.93-1.87-15.98 34.5 3.32 1.02c.15.04.27.11.4.17 5.14 2.38 7.5 8.25 5.26 13.08l-1.27 2.75 101.59 47.03 1.32-2.62c2.32-4.61 8.25-6.48 13.23-4.17l2.75 1.27 15.57-33.64-2.74-1.26zm-15.89 27.1c-6.31-1.66-12.9.5-16.75 5.49l-91.29-42.27c1.54-6.5-1.37-13.48-7.29-17.2l10.6-22.89c6.37 2 13.26.01 17.33-4.94l91.47 42.35a15.95 15.95 0 0 0 6.65 16.34l-10.72 23.12z"/></g><g><path class="st2" d="M131.95 510.29a12.12 12.12 0 1 0-10.19 22.01 12.13 12.13 0 1 0 10.19-22.01zm-8.92 19.26a9.12 9.12 0 0 1-4.44-12.08 9.1 9.1 0 1 1 4.44 12.08z"/><path class="st2" d="M133.22 507.54a15.18 15.18 0 0 0-20.13 7.39 15.18 15.18 0 0 0 7.39 20.13 15.18 15.18 0 0 0 12.74-27.52zm-10.19 22.01a9.12 9.12 0 0 1-4.44-12.08 9.1 9.1 0 1 1 4.44 12.08z"/></g></g><g opacity=".4"><path class="st2" d="M685.38 850.16c-9.26.73-16.19 8.86-15.46 18.12s8.86 16.19 18.12 15.46a16.84 16.84 0 0 0-2.66-33.58zm2.13 26.86a10.1 10.1 0 1 1-1.6-20.15 10.1 10.1 0 0 1 1.6 20.15z"/><path class="st2" d="M773.95 813.13l-177.38 14.04c-.68.05-1.19.65-1.14 1.33l6.83 86.29c.05.68.65 1.19 1.33 1.14l177.38-14.04a1.24 1.24 0 0 0 1.14-1.33l-6.83-86.29a1.23 1.23 0 0 0-1.33-1.14zm4.55 84.45c.05.61-.42 1.16-1.03 1.21l-170.9 13.53a1.13 1.13 0 0 1-1.21-1.03l-6.32-79.81a1.13 1.13 0 0 1 1.03-1.21l170.9-13.53c.61-.05 1.16.42 1.21 1.03l6.32 79.81zm-30.05-69.04l-.36-3.24-123.81 9.8.05 3.16c.09 5.65-4.55 10.45-10.54 10.93-.16.01-.32.04-.49.03l-3.85-.21 3.33 42.11 3.77-.82c.16-.04.33-.04.49-.05 6.27-.5 11.75 3.9 12.22 9.79l.27 3.35 123.97-9.81-.15-3.26c-.27-5.72 4.46-10.77 10.53-11.25l3.36-.27-3.25-41.05-3.36.27c-6.19.48-11.53-3.68-12.18-9.48zM760 872.91a17.72 17.72 0 0 0-13.23 14.44l-111.4 8.82c-2.06-7.13-8.67-12.3-16.43-12.68l-2.21-27.93c7.25-1.53 12.84-7.22 14.09-14.22l111.62-8.84a17.74 17.74 0 0 0 15.34 12.2l2.22 28.21z"/><path class="st2" d="M770.44 810.02l-170.9 13.53a7.88 7.88 0 0 0-7.22 8.46l6.32 79.81a7.87 7.87 0 0 0 8.46 7.22L778 905.51a7.87 7.87 0 0 0 7.21-8.46l-6.32-79.81a7.87 7.87 0 0 0-8.45-7.22zm8.06 87.56c.05.61-.42 1.16-1.03 1.21l-170.9 13.53a1.13 1.13 0 0 1-1.21-1.03l-6.32-79.81a1.13 1.13 0 0 1 1.03-1.21l170.9-13.53c.61-.05 1.16.42 1.21 1.03l6.32 79.81z"/><g><path class="st2" d="M685.38 850.16c-9.26.73-16.19 8.86-15.46 18.12s8.86 16.19 18.12 15.46a16.84 16.84 0 0 0-2.66-33.58zm2.13 26.86a10.1 10.1 0 1 1-1.6-20.15 10.1 10.1 0 0 1 1.6 20.15z"/><path class="st2" d="M745.1 828.91l-117.4 9.29c.11 7.4-5.81 13.71-13.64 14.33-.31.02-.62.05-.94.03l2.72 34.42c.31-.07.63-.09.94-.12 8.15-.65 15.23 5.13 15.85 12.89l117.35-9.29c-.35-7.56 5.67-14.14 13.63-14.77l-2.72-34.33c-7.97.64-14.95-4.91-15.79-12.45zm14.9 44a17.72 17.72 0 0 0-13.23 14.44l-111.4 8.82c-2.06-7.13-8.67-12.3-16.43-12.68l-2.21-27.93c7.25-1.53 12.84-7.22 14.09-14.22l111.62-8.84a17.74 17.74 0 0 0 15.34 12.2l2.22 28.21z"/><path class="st2" d="M760.62 838.01c-6.17.49-11.52-3.67-12.17-9.48l-.36-3.24-123.81 9.8.05 3.16c.09 5.65-4.55 10.45-10.54 10.93-.16.01-.32.04-.49.03l-3.85-.21 3.33 42.11 3.77-.82c.16-.04.33-.04.49-.05 6.27-.5 11.75 3.9 12.22 9.79l.27 3.35 123.97-9.81-.15-3.26c-.27-5.72 4.46-10.77 10.53-11.25l3.36-.27-3.25-41.05-3.37.27zm-.62 34.9a17.72 17.72 0 0 0-13.23 14.44l-111.4 8.82c-2.06-7.13-8.67-12.3-16.43-12.68l-2.21-27.93c7.25-1.53 12.84-7.22 14.09-14.22l111.62-8.84a17.74 17.74 0 0 0 15.34 12.2l2.22 28.21z"/></g><g><path class="st2" d="M685.65 853.51a13.48 13.48 0 1 0 2.14 26.88 13.48 13.48 0 0 0-2.14-26.88zm1.86 23.51a10.1 10.1 0 1 1-1.6-20.15 10.1 10.1 0 0 1 1.6 20.15z"/><path class="st2" d="M685.38 850.16c-9.26.73-16.19 8.86-15.46 18.12s8.86 16.19 18.12 15.46a16.84 16.84 0 0 0-2.66-33.58zm2.13 26.86a10.1 10.1 0 1 1-1.6-20.15 10.1 10.1 0 0 1 1.6 20.15z"/></g></g><g opacity=".17"><path class="st2" d="M682.29 385.41a16.88 16.88 0 0 0 10.01 32.21 16.87 16.87 0 0 0-10.01-32.21zm8.01 25.76a10.13 10.13 0 1 1-6-19.34 10.13 10.13 0 0 1 6 19.34z"/><path class="st2" d="M760.63 329.68l-170.17 52.89c-.65.2-1.02.9-.82 1.55l25.73 82.78c.2.65.9 1.02 1.55.82l170.17-52.89c.65-.2 1.02-.9.82-1.55l-25.73-82.78c-.2-.66-.9-1.03-1.55-.82zm23.09 81.49c.18.58-.16 1.23-.74 1.41l-163.95 50.96a1.15 1.15 0 0 1-1.41-.74l-23.8-76.56c-.18-.58.16-1.23.74-1.41l163.95-50.96c.58-.18 1.23.16 1.41.74l23.8 76.56zm-44.6-60.81l-1.07-3.08-118.77 36.92.75 3.07c1.33 5.5-2.13 11.21-7.89 13-.15.05-.3.11-.47.13l-3.81.64 12.56 40.39 3.5-1.63c.15-.07.31-.11.46-.16 6.02-1.87 12.34 1.21 14.1 6.87l1 3.22 118.92-36.96-.87-3.15c-1.52-5.53 1.98-11.5 7.8-13.31l3.22-1-12.24-39.38-3.22 1c-5.92 1.84-12.06-1.05-13.97-6.57zm21.08 40.79c-6.45 3.34-10.28 10.03-9.73 17.02L643.6 441.39c-3.58-6.51-11.19-10.1-18.85-8.76l-8.33-26.79c6.75-3.1 10.95-9.89 10.62-17l107.08-33.28a17.76 17.76 0 0 0 17.68 8.53l8.4 27.06z"/><path class="st2" d="M756.51 327.42l-163.95 50.96a7.87 7.87 0 0 0-5.18 9.85l23.8 76.56a7.88 7.88 0 0 0 9.85 5.18l163.95-50.96a7.88 7.88 0 0 0 5.17-9.85l-23.8-76.56a7.87 7.87 0 0 0-9.84-5.18zm27.21 83.75c.18.58-.16 1.23-.74 1.41l-163.95 50.96a1.15 1.15 0 0 1-1.41-.74l-23.8-76.56c-.18-.58.16-1.23.74-1.41l163.95-50.96c.58-.18 1.23.16 1.41.74l23.8 76.56z"/><g><path class="st2" d="M682.29 385.41a16.88 16.88 0 0 0 10.01 32.21 16.87 16.87 0 0 0-10.01-32.21zm8.01 25.76a10.13 10.13 0 1 1-6-19.34 10.13 10.13 0 0 1 6 19.34z"/><path class="st2" d="M735.93 351.47L623.3 386.48c1.75 7.21-2.64 14.68-10.16 17.01-.3.09-.6.19-.91.24l10.26 33.02c.29-.14.59-.23.89-.32 7.82-2.43 16.01 1.65 18.32 9.09l112.58-34.99c-2.01-7.31 2.41-15.06 10.05-17.44l-10.24-32.94c-7.63 2.38-15.67-1.5-18.16-8.68zm24.27 39.68c-6.45 3.34-10.28 10.03-9.73 17.02L643.6 441.39c-3.58-6.51-11.19-10.1-18.85-8.76l-8.33-26.79c6.75-3.1 10.95-9.89 10.62-17l107.08-33.28a17.76 17.76 0 0 0 17.68 8.53l8.4 27.06z"/><path class="st2" d="M753.1 356.93c-5.92 1.84-12.06-1.04-13.98-6.57l-1.07-3.08-118.77 36.92.75 3.07c1.33 5.5-2.13 11.21-7.89 13-.15.05-.3.11-.47.13l-3.81.64 12.56 40.39 3.5-1.63c.15-.07.31-.11.46-.16 6.02-1.87 12.34 1.21 14.1 6.87l1 3.22 118.92-36.96-.87-3.15c-1.52-5.53 1.98-11.5 7.8-13.31l3.22-1-12.24-39.38-3.21 1zm7.1 34.22c-6.45 3.34-10.28 10.03-9.73 17.02L643.6 441.39c-3.58-6.51-11.19-10.1-18.85-8.76l-8.33-26.79c6.75-3.1 10.95-9.89 10.62-17l107.08-33.28a17.76 17.76 0 0 0 17.68 8.53l8.4 27.06z"/></g><g><path class="st2" d="M683.29 388.63a13.49 13.49 0 1 0 8 25.76 13.49 13.49 0 0 0-8-25.76zm7.01 22.54a10.13 10.13 0 1 1-6-19.34 10.13 10.13 0 0 1 6 19.34z"/><path class="st2" d="M682.29 385.41a16.88 16.88 0 0 0 10.01 32.21 16.87 16.87 0 0 0-10.01-32.21zm8.01 25.76a10.13 10.13 0 1 1-6-19.34 10.13 10.13 0 0 1 6 19.34z"/></g></g><g opacity=".11"><path class="st2" d="M185.36 803.19c-8.68-2.25-17.64 3.25-19.97 12.25-2.33 9 2.83 18.16 11.51 20.41s17.63-3.25 19.96-12.25c2.34-9-2.82-18.16-11.5-20.41zm-6.76 26.12c-5.21-1.35-8.31-6.84-6.91-12.24 1.4-5.4 6.77-8.7 11.98-7.35 5.2 1.35 8.3 6.84 6.9 12.24-1.39 5.4-6.77 8.7-11.97 7.35z"/><path class="st2" d="M278.13 796.27l-166.3-43.08c-.64-.16-1.3.24-1.47.9l-21.74 83.92c-.17.66.21 1.34.85 1.5l166.3 43.08c.64.16 1.3-.24 1.47-.9l21.74-83.92a1.23 1.23 0 0 0-.85-1.5zm-23.23 81.45c-.15.59-.76.96-1.33.82L93.35 837.03a1.12 1.12 0 0 1-.77-1.36l20.11-77.61c.15-.59.76-.96 1.33-.82l160.22 41.51c.57.15.92.77.77 1.36l-20.11 77.61zm-5.02-74.96l.72-3.18-116.07-30.08-.98 3.01c-1.75 5.38-7.53 8.45-13.15 7-.15-.04-.3-.07-.45-.13l-3.44-1.42-10.61 40.95 3.7.42c.16.02.31.07.46.11 5.88 1.52 9.45 7.43 7.97 13.16l-.84 3.26 116.22 30.11.92-3.13c1.61-5.5 7.56-8.78 13.25-7.31l3.15.82 10.34-39.92-3.15-.82a10.84 10.84 0 0 1-8.04-12.85zm-3.85 45.7a17.37 17.37 0 0 0-16.74 9.47l-104.44-27.06a17.53 17.53 0 0 0-10.87-17.23l7.04-27.16a17.55 17.55 0 0 0 17.45-8.99l104.64 27.11a17.39 17.39 0 0 0 10.03 16.43l-7.11 27.43z"/><path class="st2" d="M275.93 792.21L115.71 750.7c-4.05-1.05-8.23 1.52-9.32 5.72l-20.11 77.61c-1.09 4.2 1.32 8.47 5.37 9.52l160.22 41.51c4.05 1.05 8.23-1.52 9.31-5.72l20.11-77.61c1.1-4.19-1.31-8.47-5.36-9.52zm-21.03 85.51c-.15.59-.76.96-1.33.82L93.35 837.03a1.12 1.12 0 0 1-.77-1.36l20.11-77.61c.15-.59.76-.96 1.33-.82l160.22 41.51c.57.15.92.77.77 1.36l-20.11 77.61z"/><g><path class="st2" d="M185.36 803.19c-8.68-2.25-17.64 3.25-19.97 12.25-2.33 9 2.83 18.16 11.51 20.41s17.63-3.25 19.96-12.25c2.34-9-2.82-18.16-11.5-20.41zm-6.76 26.12c-5.21-1.35-8.31-6.84-6.91-12.24 1.4-5.4 6.77-8.7 11.98-7.35 5.2 1.35 8.3 6.84 6.9 12.24-1.39 5.4-6.77 8.7-11.97 7.35z"/><path class="st2" d="M246.7 802.05l-110.06-28.51a14.16 14.16 0 0 1-17.08 9.24c-.29-.08-.58-.15-.87-.27l-8.67 33.47c.31.03.6.11.89.19a14.19 14.19 0 0 1 10.27 17.25l110.02 28.5a14.21 14.21 0 0 1 17.22-9.66l8.65-33.39a14.2 14.2 0 0 1-10.37-16.82zm-.67 46.41a17.37 17.37 0 0 0-16.74 9.47l-104.44-27.06a17.53 17.53 0 0 0-10.87-17.23l7.04-27.16a17.55 17.55 0 0 0 17.45-8.99l104.64 27.11a17.39 17.39 0 0 0 10.03 16.43l-7.11 27.43z"/><path class="st2" d="M257.9 815.6a10.84 10.84 0 0 1-8.03-12.84l.72-3.18-116.06-30.08-.98 3.01c-1.75 5.38-7.53 8.45-13.15 7-.15-.04-.3-.07-.45-.13l-3.44-1.42-10.61 40.95 3.7.42c.16.02.31.07.46.11 5.88 1.52 9.45 7.43 7.97 13.16l-.84 3.26 116.22 30.11.92-3.13c1.61-5.5 7.56-8.78 13.25-7.31l3.15.82 10.34-39.92-3.17-.83zm-11.87 32.86a17.37 17.37 0 0 0-16.74 9.47l-104.44-27.06a17.53 17.53 0 0 0-10.87-17.23l7.04-27.16a17.55 17.55 0 0 0 17.45-8.99l104.64 27.11a17.39 17.39 0 0 0 10.03 16.43l-7.11 27.43z"/></g><g><path class="st2" d="M184.52 806.46c-6.96-1.8-14.11 2.59-15.97 9.8-1.87 7.21 2.25 14.52 9.21 16.32 6.95 1.8 14.11-2.59 15.97-9.8 1.86-7.21-2.26-14.52-9.21-16.32zm-5.92 22.85c-5.21-1.35-8.31-6.84-6.91-12.24 1.4-5.4 6.77-8.7 11.98-7.35 5.2 1.35 8.3 6.84 6.9 12.24-1.39 5.4-6.77 8.7-11.97 7.35z"/><path class="st2" d="M185.36 803.19c-8.68-2.25-17.64 3.25-19.97 12.25-2.33 9 2.83 18.16 11.51 20.41s17.63-3.25 19.96-12.25c2.34-9-2.82-18.16-11.5-20.41zm-6.76 26.12c-5.21-1.35-8.31-6.84-6.91-12.24 1.4-5.4 6.77-8.7 11.98-7.35 5.2 1.35 8.3 6.84 6.9 12.24-1.39 5.4-6.77 8.7-11.97 7.35z"/></g></g><g opacity=".56"><path class="st2" d="M258.96 1003.42a15.45 15.45 0 1 0 17.34 13.28 15.47 15.47 0 0 0-17.34-13.28zm3.25 24.49a9.27 9.27 0 1 1-2.43-18.38 9.27 9.27 0 0 1 2.43 18.38z"/><path class="st2" d="M338.23 965.23l-161.69 21.46c-.62.08-1.06.66-.98 1.28l10.44 78.66c.08.62.66 1.06 1.28.98l161.69-21.46c.62-.08 1.06-.66.98-1.28l-10.44-78.66a1.15 1.15 0 0 0-1.28-.98zm8.27 77.09c.07.55-.33 1.08-.88 1.15l-155.78 20.68a1.04 1.04 0 0 1-1.15-.88l-9.66-72.75c-.07-.55.33-1.08.88-1.15l155.78-20.68c.55-.07 1.08.33 1.15.88l9.66 72.75zm-30.86-61.75l-.49-2.95L202.3 992.6l.2 2.89c.35 5.17-3.66 9.79-9.12 10.51-.15.02-.29.05-.45.05l-3.53-.01 5.09 38.38 3.41-.93c.15-.04.3-.05.44-.07 5.72-.76 10.95 3 11.66 8.37l.41 3.06 113-15-.3-2.97c-.52-5.22 3.56-10.07 9.09-10.81l3.06-.41-4.97-37.42-3.06.41c-5.62.75-10.72-2.8-11.59-8.08zm12.72 40.06a16.24 16.24 0 0 0-11.41 13.86l-101.54 13.48c-2.23-6.43-8.54-10.84-15.66-10.81l-3.38-25.46c6.57-1.75 11.41-7.23 12.2-13.7l101.74-13.5a16.25 16.25 0 0 0 14.63 10.42l3.42 25.71z"/><path class="st2" d="M334.87 962.56l-155.78 20.68a7.2 7.2 0 0 0-6.19 8.09l9.66 72.75a7.2 7.2 0 0 0 8.09 6.19l155.78-20.68a7.22 7.22 0 0 0 6.19-8.09l-9.66-72.75a7.22 7.22 0 0 0-8.09-6.19zm11.63 79.76c.07.55-.33 1.08-.88 1.15l-155.78 20.68a1.04 1.04 0 0 1-1.15-.88l-9.66-72.75c-.07-.55.33-1.08.88-1.15l155.78-20.68c.55-.07 1.08.33 1.15.88l9.66 72.75z"/><g><path class="st2" d="M258.96 1003.42a15.45 15.45 0 1 0 17.34 13.28 15.47 15.47 0 0 0-17.34-13.28zm3.25 24.49a9.27 9.27 0 1 1-2.43-18.38 9.27 9.27 0 0 1 2.43 18.38z"/><path class="st2" d="M312.59 981.08l-107.01 14.2c.46 6.77-4.65 12.83-11.79 13.78a4.9 4.9 0 0 1-.86.07l4.16 31.37c.28-.08.57-.12.85-.15 7.43-.99 14.19 3.96 15.13 11.03l106.97-14.2c-.69-6.9 4.5-13.22 11.76-14.18l-4.15-31.29c-7.27.97-13.92-3.77-15.06-10.63zm15.77 39.55a16.24 16.24 0 0 0-11.41 13.86l-101.54 13.48c-2.23-6.43-8.54-10.84-15.66-10.81l-3.38-25.46c6.57-1.75 11.41-7.23 12.2-13.7l101.74-13.5a16.25 16.25 0 0 0 14.63 10.42l3.42 25.71z"/><path class="st2" d="M327.24 988.66c-5.63.75-10.72-2.8-11.6-8.08l-.49-2.95L202.3 992.6l.2 2.89c.35 5.17-3.66 9.79-9.12 10.51-.15.02-.29.05-.45.05l-3.53-.01 5.09 38.38 3.41-.93c.15-.04.3-.05.44-.07 5.72-.76 10.95 3 11.66 8.37l.41 3.06 113-15-.3-2.97c-.52-5.22 3.56-10.07 9.09-10.81l3.06-.41-4.97-37.42-3.05.42zm1.12 31.97a16.24 16.24 0 0 0-11.41 13.86l-101.54 13.48c-2.23-6.43-8.54-10.84-15.66-10.81l-3.38-25.46c6.57-1.75 11.41-7.23 12.2-13.7l101.74-13.5a16.25 16.25 0 0 0 14.63 10.42l3.42 25.71z"/></g><g><path class="st2" d="M259.37 1006.48a12.36 12.36 0 1 0 3.26 24.5 12.36 12.36 0 0 0-3.26-24.5zm2.84 21.43a9.27 9.27 0 1 1-2.43-18.38 9.27 9.27 0 0 1 2.43 18.38z"/><path class="st2" d="M258.96 1003.42a15.45 15.45 0 1 0 17.34 13.28 15.47 15.47 0 0 0-17.34-13.28zm3.25 24.49a9.27 9.27 0 1 1-2.43-18.38 9.27 9.27 0 0 1 2.43 18.38z"/></g></g></svg>