<?xml version="1.0" encoding="utf-8"?>
<!-- Generator: Adobe Illustrator 23.0.0, SVG Export Plug-In . SVG Version: 6.00 Build 0)  -->
<svg version="1.1" id="Layer_1" xmlns="http://www.w3.org/2000/svg" xmlns:xlink="http://www.w3.org/1999/xlink" x="0px" y="0px"
	 viewBox="0 0 374.57 588.73" style="enable-background:new 0 0 374.57 588.73;" xml:space="preserve">
<style type="text/css">
	.st0{fill:url(#SVGID_1_);}
	.st1{opacity:0.44;}
	.st2{fill:#FFFFFF;}
	.st3{opacity:0.47;}
	.st4{opacity:0.28;}
</style>
<linearGradient id="SVGID_1_" gradientUnits="userSpaceOnUse" x1="187.9393" y1="334.367" x2="183.4655" y2="60.0703">
	<stop  offset="0.1127" style="stop-color:#FF9B00"/>
	<stop  offset="0.9732" style="stop-color:#FFBE1C"/>
</linearGradient>
<rect class="st0" width="374.57" height="588.73"/>
<g class="st1">
	<g>
		<g>
			<path class="st2" d="M332.86,39.14c-5.63-4.54-13.9-3.65-18.43,1.98c-4.54,5.63-3.65,13.89,1.98,18.43
				c5.63,4.54,13.89,3.64,18.43-1.98C339.37,51.94,338.49,43.67,332.86,39.14z M319.7,55.46c-3.38-2.72-3.91-7.68-1.19-11.06
				c2.72-3.38,7.68-3.91,11.06-1.18c3.37,2.72,3.91,7.68,1.19,11.06C328.04,57.65,323.08,58.18,319.7,55.46z"/>
			<path class="st2" d="M402.75,65.56L294.93-21.35c-0.41-0.33-1.02-0.27-1.36,0.15L251.3,31.24c-0.33,0.41-0.27,1.02,0.15,1.36
				l107.81,86.91c0.41,0.33,1.02,0.27,1.36-0.15l42.28-52.45C403.23,66.5,403.16,65.89,402.75,65.56z M360.16,115.75
				c-0.3,0.37-0.86,0.43-1.23,0.13L255.06,32.15c-0.37-0.3-0.43-0.86-0.13-1.23l39.1-48.51c0.3-0.37,0.86-0.43,1.23-0.13
				l103.87,83.73c0.37,0.3,0.43,0.86,0.13,1.23L360.16,115.75z M380.09,60.64l1.53-2.03L306.37-2.05l-1.66,1.81
				c-2.97,3.24-8.16,3.48-11.8,0.54c-0.1-0.08-0.2-0.15-0.29-0.25l-2.06-2.18l-20.63,25.59l2.57,1.55c0.11,0.07,0.2,0.15,0.3,0.23
				c3.81,3.07,4.56,8.49,1.67,12.07l-1.64,2.04l75.35,60.74l1.66-1.92c2.91-3.38,8.28-3.7,11.97-0.73l2.04,1.65l20.11-24.95
				l-2.04-1.65C378.15,69.48,377.35,64.26,380.09,60.64z M362.89,91.9c-4.94-2.72-10.92-2.29-15.2,1.09l-67.71-54.58
				c2.65-5.13,1.67-11.59-2.51-15.96l13.68-16.97c4.92,3.01,11.12,2.79,15.57-0.51l67.84,54.69c-2.4,4.9-1.55,10.84,2.15,15.1
				L362.89,91.9z"/>
			<path class="st2" d="M402.42,61.93L298.55-21.8c-2.63-2.12-6.49-1.7-8.6,0.92l-39.1,48.51c-2.11,2.62-1.7,6.48,0.92,8.6
				l103.87,83.73c2.62,2.11,6.48,1.7,8.6-0.93l39.1-48.51C405.46,67.9,405.05,64.04,402.42,61.93z M360.16,115.75
				c-0.3,0.37-0.86,0.43-1.23,0.13L255.06,32.15c-0.37-0.3-0.43-0.86-0.13-1.23l39.1-48.51c0.3-0.37,0.86-0.43,1.23-0.13
				l103.87,83.73c0.37,0.3,0.43,0.86,0.13,1.23L360.16,115.75z"/>
		</g>
	</g>
	<g>
		<path class="st2" d="M332.86,39.14c-5.63-4.54-13.9-3.65-18.43,1.98c-4.54,5.63-3.65,13.89,1.98,18.43
			c5.63,4.54,13.89,3.64,18.43-1.98C339.37,51.94,338.49,43.67,332.86,39.14z M319.7,55.46c-3.38-2.72-3.91-7.68-1.19-11.06
			c2.72-3.38,7.68-3.91,11.06-1.18c3.37,2.72,3.91,7.68,1.19,11.06C328.04,57.65,323.08,58.18,319.7,55.46z"/>
		<path class="st2" d="M377.99,59.06L306.63,1.54c-3.89,4.25-10.62,4.65-15.38,0.81c-0.19-0.15-0.38-0.31-0.55-0.49l-16.86,20.92
			c0.21,0.13,0.4,0.28,0.59,0.43c4.95,3.99,5.87,11.05,2.07,15.76l71.33,57.5c3.84-4.46,10.76-4.96,15.6-1.06l16.82-20.87
			C375.41,70.64,374.44,63.77,377.99,59.06z M362.89,91.9c-4.94-2.72-10.92-2.29-15.2,1.09l-67.71-54.58
			c2.65-5.13,1.67-11.59-2.51-15.96l13.68-16.97c4.92,3.01,11.12,2.79,15.57-0.51l67.84,54.69c-2.4,4.9-1.55,10.84,2.15,15.1
			L362.89,91.9z"/>
		<path class="st2" d="M381.9,72.5c-3.75-3.03-4.55-8.24-1.82-11.87l1.53-2.03L306.37-2.05l-1.66,1.81
			c-2.97,3.24-8.16,3.48-11.8,0.54c-0.1-0.08-0.2-0.15-0.29-0.25l-2.06-2.18l-20.63,25.59l2.57,1.55c0.11,0.07,0.2,0.15,0.3,0.23
			c3.81,3.07,4.56,8.49,1.67,12.07l-1.64,2.04l75.35,60.74l1.66-1.92c2.91-3.38,8.28-3.7,11.97-0.73l2.04,1.65l20.11-24.95
			L381.9,72.5z M362.89,91.9c-4.94-2.72-10.92-2.29-15.2,1.09l-67.71-54.58c2.65-5.13,1.67-11.59-2.51-15.96l13.68-16.97
			c4.92,3.01,11.12,2.79,15.57-0.51l67.84,54.69c-2.4,4.9-1.55,10.84,2.15,15.1L362.89,91.9z"/>
	</g>
	<g>
		<path class="st2" d="M331.22,41.18c-4.51-3.64-11.11-2.92-14.74,1.58c-3.63,4.51-2.93,11.11,1.58,14.74
			c4.51,3.63,11.11,2.92,14.74-1.58C336.44,51.42,335.73,44.81,331.22,41.18z M319.7,55.46c-3.38-2.72-3.91-7.68-1.19-11.06
			c2.72-3.38,7.68-3.91,11.06-1.18c3.37,2.72,3.91,7.68,1.19,11.06C328.04,57.65,323.08,58.18,319.7,55.46z"/>
		<path class="st2" d="M332.86,39.14c-5.63-4.54-13.9-3.65-18.43,1.98c-4.54,5.63-3.65,13.89,1.98,18.43
			c5.63,4.54,13.89,3.64,18.43-1.98C339.37,51.94,338.49,43.67,332.86,39.14z M319.7,55.46c-3.38-2.72-3.91-7.68-1.19-11.06
			c2.72-3.38,7.68-3.91,11.06-1.18c3.37,2.72,3.91,7.68,1.19,11.06C328.04,57.65,323.08,58.18,319.7,55.46z"/>
	</g>
</g>
<g class="st3">
	<g>
		<g>
			<path class="st2" d="M27.67,202.61c-4.63,1.48-7.19,6.44-5.72,11.06c1.47,4.63,6.44,7.19,11.06,5.72
				c4.63-1.47,7.19-6.44,5.71-11.06C37.26,203.7,32.3,201.14,27.67,202.61z M31.95,216.04c-2.78,0.89-5.76-0.65-6.64-3.43
				c-0.89-2.78,0.65-5.75,3.43-6.64c2.77-0.88,5.75,0.65,6.64,3.43C36.26,212.17,34.72,215.15,31.95,216.04z"/>
			<path class="st2" d="M68.36,173.22l-88.64,28.25c-0.34,0.11-0.53,0.47-0.42,0.81l13.74,43.12c0.11,0.34,0.47,0.53,0.81,0.42
				l88.64-28.25c0.34-0.11,0.53-0.47,0.42-0.81l-13.74-43.12C69.07,173.31,68.7,173.12,68.36,173.22z M80.72,215.68
				c0.1,0.3-0.08,0.64-0.38,0.74l-85.4,27.22c-0.3,0.1-0.64-0.08-0.74-0.38l-12.71-39.88c-0.1-0.3,0.08-0.64,0.38-0.74l85.4-27.22
				c0.3-0.1,0.64,0.08,0.74,0.38L80.72,215.68z M57.21,184.1l-0.57-1.61l-61.87,19.72l0.4,1.6c0.72,2.87-1.07,5.86-4.07,6.82
				c-0.08,0.03-0.16,0.06-0.25,0.07l-1.99,0.35l6.71,21.04l1.82-0.87c0.08-0.04,0.16-0.06,0.24-0.08c3.14-1,6.45,0.59,7.39,3.53
				l0.53,1.68l61.95-19.74l-0.46-1.64c-0.82-2.88,0.99-6.01,4.02-6.98l1.68-0.53l-6.54-20.51l-1.68,0.53
				C61.45,188.46,58.23,186.98,57.21,184.1z M68.37,205.32c-3.35,1.77-5.33,5.28-5.02,8.92L7.68,231.99
				c-1.9-3.39-5.88-5.23-9.87-4.5l-4.45-13.96c3.51-1.64,5.68-5.2,5.48-8.92l55.78-17.78c1.86,3.16,5.5,4.88,9.26,4.39L68.37,205.32
				z"/>
			<path class="st2" d="M66.21,172.06l-85.4,27.22c-2.16,0.69-3.36,3.01-2.67,5.16l12.71,39.88c0.69,2.16,3,3.36,5.16,2.67
				l85.4-27.22c2.16-0.69,3.35-3.01,2.66-5.16l-12.71-39.88C70.68,172.57,68.36,171.37,66.21,172.06z M80.72,215.68
				c0.1,0.3-0.08,0.64-0.38,0.74l-85.4,27.22c-0.3,0.1-0.64-0.08-0.74-0.38l-12.71-39.88c-0.1-0.3,0.08-0.64,0.38-0.74l85.4-27.22
				c0.3-0.1,0.64,0.08,0.74,0.38L80.72,215.68z"/>
		</g>
	</g>
	<g>
		<path class="st2" d="M27.67,202.61c-4.63,1.48-7.19,6.44-5.72,11.06c1.47,4.63,6.44,7.19,11.06,5.72
			c4.63-1.47,7.19-6.44,5.71-11.06C37.26,203.7,32.3,201.14,27.67,202.61z M31.95,216.04c-2.78,0.89-5.76-0.65-6.64-3.43
			c-0.89-2.78,0.65-5.75,3.43-6.64c2.77-0.88,5.75,0.65,6.64,3.43C36.26,212.17,34.72,215.15,31.95,216.04z"/>
		<path class="st2" d="M55.55,184.69l-58.67,18.7c0.94,3.76-1.32,7.67-5.24,8.92c-0.15,0.05-0.31,0.1-0.48,0.13l5.48,17.2
			c0.15-0.07,0.31-0.12,0.46-0.17c4.07-1.3,8.37,0.8,9.6,4.68l58.64-18.69c-1.08-3.81,1.2-7.87,5.18-9.14l-5.47-17.16
			C61.09,190.43,56.87,188.43,55.55,184.69z M68.37,205.32c-3.35,1.77-5.33,5.28-5.02,8.92L7.68,231.99
			c-1.9-3.39-5.88-5.23-9.87-4.5l-4.45-13.96c3.51-1.64,5.68-5.2,5.48-8.92l55.78-17.78c1.86,3.16,5.5,4.88,9.26,4.39L68.37,205.32z
			"/>
		<path class="st2" d="M64.53,187.48c-3.09,0.98-6.3-0.5-7.32-3.38l-0.57-1.61l-61.87,19.72l0.4,1.6c0.72,2.87-1.07,5.86-4.07,6.82
			c-0.08,0.03-0.16,0.06-0.25,0.07l-1.99,0.35l6.71,21.04l1.82-0.87c0.08-0.04,0.16-0.06,0.24-0.08c3.14-1,6.45,0.59,7.39,3.53
			l0.53,1.68l61.95-19.74l-0.46-1.64c-0.82-2.88,0.99-6.01,4.02-6.98l1.68-0.53l-6.54-20.51L64.53,187.48z M68.37,205.32
			c-3.35,1.77-5.33,5.28-5.02,8.92L7.68,231.99c-1.9-3.39-5.88-5.23-9.87-4.5l-4.45-13.96c3.51-1.64,5.68-5.2,5.48-8.92l55.78-17.78
			c1.86,3.16,5.5,4.88,9.26,4.39L68.37,205.32z"/>
	</g>
	<g>
		<path class="st2" d="M28.2,204.29c-3.71,1.18-5.75,5.14-4.57,8.85c1.18,3.71,5.14,5.75,8.85,4.57c3.71-1.18,5.75-5.14,4.57-8.85
			C35.87,205.16,31.91,203.11,28.2,204.29z M31.95,216.04c-2.78,0.89-5.76-0.65-6.64-3.43c-0.89-2.78,0.65-5.75,3.43-6.64
			c2.77-0.88,5.75,0.65,6.64,3.43C36.26,212.17,34.72,215.15,31.95,216.04z"/>
		<path class="st2" d="M27.67,202.61c-4.63,1.48-7.19,6.44-5.72,11.06c1.47,4.63,6.44,7.19,11.06,5.72
			c4.63-1.47,7.19-6.44,5.71-11.06C37.26,203.7,32.3,201.14,27.67,202.61z M31.95,216.04c-2.78,0.89-5.76-0.65-6.64-3.43
			c-0.89-2.78,0.65-5.75,3.43-6.64c2.77-0.88,5.75,0.65,6.64,3.43C36.26,212.17,34.72,215.15,31.95,216.04z"/>
	</g>
</g>
<g class="st4">
	<g>
		<g>
			<path class="st2" d="M296.12,572.72c-5.09-3.58-12.15-2.35-15.73,2.74c-3.58,5.09-2.36,12.15,2.74,15.73
				c5.09,3.58,12.15,2.35,15.73-2.74C302.43,583.36,301.21,576.3,296.12,572.72z M285.73,587.5c-3.06-2.15-3.79-6.38-1.65-9.44
				c2.15-3.06,6.38-3.79,9.44-1.64c3.05,2.15,3.79,6.38,1.64,9.44C293.01,588.91,288.78,589.64,285.73,587.5z"/>
			<path class="st2" d="M357.67,591.49l-97.56-68.62c-0.37-0.26-0.89-0.17-1.16,0.2l-33.38,47.46c-0.26,0.37-0.17,0.89,0.2,1.16
				l97.56,68.62c0.37,0.26,0.89,0.17,1.16-0.2l33.38-47.46C358.13,592.28,358.04,591.76,357.67,591.49z M323.89,637.03
				c-0.23,0.33-0.71,0.42-1.05,0.18l-94-66.11c-0.33-0.23-0.42-0.71-0.18-1.05l30.88-43.9c0.23-0.33,0.71-0.42,1.05-0.18l94,66.11
				c0.33,0.23,0.42,0.71,0.18,1.05L323.89,637.03z M337.92,588.54l1.2-1.83l-68.09-47.9l-1.32,1.65c-2.37,2.96-6.82,3.45-10.11,1.13
				c-0.09-0.06-0.18-0.12-0.26-0.2l-1.9-1.76l-16.29,23.16l2.3,1.19c0.1,0.05,0.18,0.12,0.27,0.18c3.45,2.43,4.4,7.04,2.12,10.28
				l-1.3,1.84l68.18,47.96l1.31-1.75c2.31-3.07,6.91-3.65,10.25-1.3l1.85,1.3l15.88-22.58l-1.85-1.3
				C336.75,596.24,335.77,591.81,337.92,588.54z M324.9,616.38c-4.4-2.06-9.52-1.35-13,1.79l-61.27-43.1
				c1.99-4.56,0.78-10.06-3.06-13.57l10.8-15.36c4.4,2.31,9.72,1.77,13.35-1.31l61.39,43.18c-1.78,4.35-0.72,9.41,2.7,12.86
				L324.9,616.38z"/>
			<path class="st2" d="M357.19,588.39l-94-66.11c-2.38-1.67-5.67-1.1-7.34,1.28l-30.88,43.9c-1.67,2.37-1.1,5.67,1.28,7.34
				l94,66.11c2.37,1.67,5.67,1.09,7.34-1.28l30.88-43.9C360.13,593.36,359.56,590.06,357.19,588.39z M323.89,637.03
				c-0.23,0.33-0.71,0.42-1.05,0.18l-94-66.11c-0.33-0.23-0.42-0.71-0.18-1.05l30.88-43.9c0.23-0.33,0.71-0.42,1.05-0.18l94,66.11
				c0.33,0.23,0.42,0.71,0.18,1.05L323.89,637.03z"/>
		</g>
	</g>
	<g>
		<path class="st2" d="M296.12,572.72c-5.09-3.58-12.15-2.35-15.73,2.74c-3.58,5.09-2.36,12.15,2.74,15.73
			c5.09,3.58,12.15,2.35,15.73-2.74C302.43,583.36,301.21,576.3,296.12,572.72z M285.73,587.5c-3.06-2.15-3.79-6.38-1.65-9.44
			c2.15-3.06,6.38-3.79,9.44-1.64c3.05,2.15,3.79,6.38,1.64,9.44C293.01,588.91,288.78,589.64,285.73,587.5z"/>
		<path class="st2" d="M336.02,587.3l-64.57-45.42c-3.11,3.87-8.86,4.6-13.17,1.56c-0.17-0.12-0.34-0.24-0.5-0.39l-13.32,18.93
			c0.19,0.1,0.36,0.22,0.53,0.34c4.48,3.15,5.67,9.16,2.67,13.43l64.55,45.4c3.05-4.05,8.97-4.87,13.35-1.79l13.28-18.88
			C334.46,597.4,333.24,591.55,336.02,587.3z M324.9,616.38c-4.4-2.06-9.52-1.35-13,1.79l-61.27-43.1
			c1.99-4.56,0.78-10.06-3.06-13.57l10.8-15.36c4.4,2.31,9.72,1.77,13.35-1.31l61.39,43.18c-1.78,4.35-0.72,9.41,2.7,12.86
			L324.9,616.38z"/>
		<path class="st2" d="M340.14,598.63c-3.4-2.39-4.37-6.82-2.23-10.1l1.2-1.83l-68.09-47.9l-1.32,1.65
			c-2.37,2.96-6.82,3.45-10.11,1.13c-0.09-0.06-0.18-0.12-0.26-0.2l-1.9-1.76l-16.29,23.16l2.3,1.19c0.1,0.05,0.18,0.12,0.27,0.18
			c3.45,2.43,4.4,7.04,2.12,10.28l-1.3,1.84l68.18,47.96l1.31-1.75c2.31-3.07,6.91-3.65,10.25-1.3l1.85,1.3l15.88-22.58
			L340.14,598.63z M324.9,616.38c-4.4-2.06-9.52-1.35-13,1.79l-61.27-43.1c1.99-4.56,0.78-10.06-3.06-13.57l10.8-15.36
			c4.4,2.31,9.72,1.77,13.35-1.31l61.39,43.18c-1.78,4.35-0.72,9.41,2.7,12.86L324.9,616.38z"/>
	</g>
	<g>
		<path class="st2" d="M294.82,574.57c-4.08-2.87-9.71-1.89-12.58,2.19c-2.87,4.08-1.89,9.71,2.19,12.58
			c4.08,2.87,9.71,1.89,12.58-2.19C299.88,583.07,298.9,577.44,294.82,574.57z M285.73,587.5c-3.06-2.15-3.79-6.38-1.65-9.44
			c2.15-3.06,6.38-3.79,9.44-1.64c3.05,2.15,3.79,6.38,1.64,9.44C293.01,588.91,288.78,589.64,285.73,587.5z"/>
		<path class="st2" d="M296.12,572.72c-5.09-3.58-12.15-2.35-15.73,2.74c-3.58,5.09-2.36,12.15,2.74,15.73
			c5.09,3.58,12.15,2.35,15.73-2.74C302.43,583.36,301.21,576.3,296.12,572.72z M285.73,587.5c-3.06-2.15-3.79-6.38-1.65-9.44
			c2.15-3.06,6.38-3.79,9.44-1.64c3.05,2.15,3.79,6.38,1.64,9.44C293.01,588.91,288.78,589.64,285.73,587.5z"/>
	</g>
</g>
</svg>
