<?xml version="1.0" encoding="utf-8"?>
<!-- Generator: Adobe Illustrator 24.0.3, SVG Export Plug-In . SVG Version: 6.00 Build 0)  -->
<svg version="1.1" id="Layer_1" xmlns="http://www.w3.org/2000/svg" xmlns:xlink="http://www.w3.org/1999/xlink" x="0px" y="0px"
	 viewBox="0 0 235.5 42" style="enable-background:new 0 0 235.5 42;" xml:space="preserve">
<style type="text/css">
	.st0{fill:url(#SVGID_1_);}
	.st1{fill:#FFFFFF;}
	.st2{fill:url(#SVGID_2_);}
	.st3{fill:url(#SVGID_3_);}
	.st4{fill:url(#SVGID_4_);}
	.st5{fill:#EAEAEA;}
	.st6{fill:#E36F1E;}
	.st7{fill:#E31B23;}
	.st8{fill:#010101;}
	.st9{fill:#F15B27;}
	.st10{fill:#D73B2D;}
	.st11{fill:url(#SVGID_5_);}
	.st12{fill:url(#SVGID_6_);}
	.st13{fill:url(#SVGID_7_);}
	.st14{fill:url(#SVGID_8_);}
	.st15{fill:url(#SVGID_9_);}
	.st16{filter:url(#Adobe_OpacityMaskFilter);}
	.st17{opacity:0.5;mask:url(#SVGID_10_);}
	.st18{fill:#7E1416;}
	.st19{fill:url(#SVGID_11_);}
	.st20{fill:url(#SVGID_12_);}
	.st21{filter:url(#Adobe_OpacityMaskFilter_1_);}
	.st22{opacity:0.51;mask:url(#SVGID_13_);}
	.st23{fill:#666666;}
	.st24{fill:url(#SVGID_14_);}
	.st25{fill:url(#SVGID_15_);}
	.st26{fill:url(#SVGID_16_);}
	.st27{fill:url(#SVGID_17_);}
	.st28{fill:url(#SVGID_18_);}
	.st29{filter:url(#Adobe_OpacityMaskFilter_2_);}
	.st30{opacity:0.5;mask:url(#SVGID_19_);}
	.st31{fill:url(#SVGID_20_);}
	.st32{fill:url(#SVGID_21_);}
	.st33{fill:url(#SVGID_22_);}
	.st34{filter:url(#Adobe_OpacityMaskFilter_3_);}
	.st35{opacity:0.5;mask:url(#SVGID_23_);}
	.st36{fill:url(#SVGID_24_);}
	.st37{fill:url(#SVGID_25_);}
	.st38{fill:url(#SVGID_26_);}
	.st39{fill:url(#SVGID_27_);}
	.st40{fill:url(#SVGID_28_);}
	.st41{fill:url(#SVGID_29_);}
	.st42{fill:url(#SVGID_30_);}
	.st43{fill:url(#SVGID_31_);}
	.st44{fill:url(#SVGID_32_);}
	.st45{fill:url(#SVGID_33_);}
	.st46{fill:url(#SVGID_34_);}
	.st47{filter:url(#Adobe_OpacityMaskFilter_4_);}
	.st48{opacity:0.51;mask:url(#SVGID_35_);}
	.st49{fill:url(#SVGID_36_);}
	.st50{fill:url(#SVGID_37_);}
	.st51{fill:url(#SVGID_38_);}
	.st52{fill:url(#SVGID_39_);}
	.st53{fill:url(#SVGID_40_);}
	.st54{fill:url(#SVGID_41_);}
	.st55{fill:url(#SVGID_42_);}
	.st56{fill:url(#SVGID_43_);}
	.st57{fill:url(#SVGID_44_);}
	.st58{fill:url(#SVGID_45_);}
	.st59{fill:url(#SVGID_46_);}
	.st60{filter:url(#Adobe_OpacityMaskFilter_5_);}
	.st61{opacity:0.51;mask:url(#SVGID_47_);}
	.st62{fill:url(#SVGID_48_);}
	.st63{fill:url(#SVGID_49_);}
	.st64{fill:url(#SVGID_50_);}
	.st65{fill:url(#SVGID_51_);}
	.st66{fill:url(#SVGID_52_);}
	.st67{fill:url(#SVGID_53_);}
	.st68{fill:url(#SVGID_54_);}
	.st69{fill:url(#SVGID_55_);}
	.st70{fill:url(#SVGID_56_);}
	.st71{fill:url(#SVGID_57_);}
	.st72{fill:url(#SVGID_58_);}
	.st73{fill:url(#SVGID_59_);}
	.st74{fill:url(#SVGID_60_);}
	.st75{fill:url(#SVGID_61_);}
	.st76{fill:url(#SVGID_62_);}
	.st77{fill:url(#SVGID_63_);}
	.st78{fill:url(#SVGID_64_);}
	.st79{fill:url(#SVGID_65_);}
	.st80{fill:url(#SVGID_66_);}
	.st81{fill:url(#SVGID_67_);}
	.st82{fill:url(#SVGID_68_);}
	.st83{fill:url(#SVGID_69_);}
	.st84{fill:url(#SVGID_70_);}
	.st85{fill:url(#SVGID_71_);}
	.st86{filter:url(#Adobe_OpacityMaskFilter_6_);}
	.st87{opacity:0.53;mask:url(#SVGID_72_);}
	.st88{fill:url(#SVGID_73_);}
	.st89{fill:url(#SVGID_74_);}
	.st90{fill:url(#SVGID_75_);}
	.st91{fill:url(#SVGID_76_);}
	.st92{fill:url(#SVGID_77_);}
	.st93{fill:url(#SVGID_78_);}
	.st94{fill:url(#SVGID_79_);}
	.st95{fill:url(#SVGID_80_);}
	.st96{fill:url(#SVGID_81_);}
	.st97{fill:url(#SVGID_82_);}
	.st98{fill:url(#SVGID_83_);}
	.st99{filter:url(#Adobe_OpacityMaskFilter_7_);}
	.st100{opacity:0.44;mask:url(#SVGID_84_);}
	.st101{fill:url(#SVGID_85_);}
	.st102{fill:url(#SVGID_86_);}
	.st103{filter:url(#Adobe_OpacityMaskFilter_8_);}
	.st104{opacity:0.53;mask:url(#SVGID_87_);}
	.st105{fill:#A01D22;}
	.st106{fill:url(#SVGID_88_);}
	.st107{fill:url(#SVGID_89_);}
	.st108{filter:url(#Adobe_OpacityMaskFilter_9_);}
	.st109{opacity:0.53;mask:url(#SVGID_90_);}
	.st110{fill:url(#SVGID_91_);}
	.st111{fill:url(#SVGID_92_);}
	.st112{fill:url(#SVGID_93_);}
	.st113{fill:url(#SVGID_94_);}
	.st114{fill:url(#SVGID_95_);}
	.st115{fill:url(#SVGID_96_);}
	.st116{fill:url(#SVGID_97_);}
	.st117{fill:url(#SVGID_98_);}
	.st118{fill:url(#SVGID_99_);}
	.st119{fill:url(#SVGID_100_);}
	.st120{fill:url(#SVGID_101_);}
	.st121{fill:url(#SVGID_102_);}
	.st122{filter:url(#Adobe_OpacityMaskFilter_10_);}
	.st123{opacity:0.53;mask:url(#SVGID_103_);}
	.st124{fill:url(#SVGID_104_);}
	.st125{fill:url(#SVGID_105_);}
	.st126{filter:url(#Adobe_OpacityMaskFilter_11_);}
	.st127{opacity:0.53;mask:url(#SVGID_106_);}
	.st128{fill:url(#SVGID_107_);}
	.st129{fill:url(#SVGID_108_);}
	.st130{filter:url(#Adobe_OpacityMaskFilter_12_);}
	.st131{opacity:0.53;mask:url(#SVGID_109_);}
	.st132{fill:url(#SVGID_110_);}
	.st133{fill:url(#SVGID_111_);}
	.st134{fill:url(#SVGID_112_);}
	.st135{filter:url(#Adobe_OpacityMaskFilter_13_);}
	.st136{opacity:0.5;mask:url(#SVGID_113_);}
	.st137{fill:none;stroke:#FFFFFF;stroke-width:5;stroke-miterlimit:10;}
	.st138{fill:url(#SVGID_114_);}
	.st139{fill:url(#SVGID_115_);}
	.st140{filter:url(#Adobe_OpacityMaskFilter_14_);}
	.st141{opacity:0.51;mask:url(#SVGID_116_);}
	.st142{fill:url(#SVGID_117_);}
	.st143{fill:url(#SVGID_118_);}
	.st144{fill:url(#SVGID_119_);}
	.st145{fill:url(#SVGID_120_);}
	.st146{fill:url(#SVGID_121_);}
	.st147{fill:url(#SVGID_122_);}
	.st148{fill:url(#SVGID_123_);}
	.st149{fill:url(#SVGID_124_);}
	.st150{fill:url(#SVGID_125_);}
	.st151{fill:url(#SVGID_126_);}
	.st152{fill:url(#SVGID_127_);}
	.st153{fill:url(#SVGID_128_);}
	.st154{fill:url(#SVGID_129_);}
	.st155{fill:url(#SVGID_130_);}
	.st156{fill:url(#SVGID_131_);}
	.st157{fill:url(#SVGID_132_);}
	.st158{fill:none;stroke:url(#SVGID_133_);stroke-width:5;stroke-miterlimit:10;}
	.st159{fill:url(#SVGID_134_);}
	.st160{fill:url(#SVGID_135_);}
	.st161{fill:url(#SVGID_136_);}
	.st162{fill:url(#SVGID_137_);}
	.st163{fill:url(#SVGID_138_);}
	.st164{fill:url(#SVGID_139_);}
	.st165{fill:url(#SVGID_140_);}
	.st166{fill:url(#SVGID_141_);}
	.st167{fill:url(#SVGID_142_);}
	.st168{fill:url(#SVGID_143_);}
	.st169{fill:url(#SVGID_144_);}
	.st170{fill:url(#SVGID_145_);}
	.st171{fill:url(#SVGID_146_);}
	.st172{fill:url(#SVGID_147_);}
	.st173{fill:url(#SVGID_148_);}
	.st174{fill:url(#SVGID_149_);}
	.st175{fill:url(#SVGID_150_);}
	.st176{fill:url(#SVGID_151_);}
	.st177{fill:url(#SVGID_152_);}
	.st178{fill:url(#SVGID_153_);}
	.st179{fill:url(#SVGID_154_);}
	.st180{fill:url(#SVGID_155_);}
	.st181{fill:url(#SVGID_156_);}
	.st182{fill:url(#SVGID_157_);}
	.st183{fill:url(#SVGID_158_);}
	.st184{fill:url(#SVGID_159_);}
	.st185{fill:url(#SVGID_160_);}
	.st186{fill:url(#SVGID_161_);}
	.st187{fill:none;stroke:url(#SVGID_162_);stroke-width:5;stroke-miterlimit:10;}
	.st188{fill:url(#SVGID_163_);}
	.st189{fill:url(#SVGID_164_);}
	.st190{fill:url(#SVGID_165_);}
	.st191{fill:url(#SVGID_166_);}
	.st192{fill:url(#SVGID_167_);}
	.st193{fill:url(#SVGID_168_);}
	.st194{fill:url(#SVGID_169_);}
	.st195{fill:url(#SVGID_170_);}
	.st196{fill:url(#SVGID_171_);}
	.st197{fill:url(#SVGID_172_);}
	.st198{fill:url(#SVGID_173_);}
	.st199{fill:url(#SVGID_174_);}
	.st200{fill:url(#SVGID_175_);}
	.st201{fill:url(#SVGID_176_);}
	.st202{fill:url(#SVGID_177_);}
	.st203{fill:url(#SVGID_178_);}
	.st204{fill:url(#SVGID_179_);}
	.st205{fill:url(#SVGID_180_);}
	.st206{fill:url(#SVGID_181_);}
	.st207{fill:url(#SVGID_182_);}
	.st208{fill:url(#SVGID_183_);}
	.st209{fill:url(#SVGID_184_);}
	.st210{fill:url(#SVGID_185_);}
	.st211{fill:url(#SVGID_186_);}
	.st212{fill:url(#SVGID_187_);}
	.st213{fill:url(#SVGID_188_);}
	.st214{fill:url(#SVGID_189_);}
	.st215{filter:url(#Adobe_OpacityMaskFilter_15_);}
	.st216{opacity:0.53;mask:url(#SVGID_190_);}
	.st217{fill:url(#SVGID_191_);}
	.st218{fill:url(#SVGID_192_);}
	.st219{fill:url(#SVGID_193_);}
	.st220{fill:url(#SVGID_194_);}
	.st221{fill:url(#SVGID_195_);}
	.st222{fill:url(#SVGID_196_);}
	.st223{fill:url(#SVGID_197_);}
	.st224{fill:url(#SVGID_198_);}
	.st225{fill:url(#SVGID_199_);}
	.st226{fill:url(#SVGID_200_);}
	.st227{fill:url(#SVGID_201_);}
	.st228{fill:url(#SVGID_202_);}
	.st229{fill:url(#SVGID_203_);}
	.st230{fill:none;stroke:url(#SVGID_204_);stroke-width:5;stroke-miterlimit:10;}
	.st231{fill:url(#SVGID_205_);}
	.st232{fill:url(#SVGID_206_);}
	.st233{filter:url(#Adobe_OpacityMaskFilter_16_);}
	.st234{opacity:0.51;mask:url(#SVGID_207_);}
	.st235{fill:#D62027;}
	.st236{fill:url(#SVGID_208_);}
	.st237{fill:url(#SVGID_209_);}
	.st238{filter:url(#Adobe_OpacityMaskFilter_17_);}
	.st239{opacity:0.51;mask:url(#SVGID_210_);}
	.st240{fill:url(#SVGID_211_);}
	.st241{fill:url(#SVGID_212_);}
	.st242{fill:url(#SVGID_213_);}
	.st243{fill:url(#SVGID_214_);}
	.st244{fill:url(#SVGID_215_);}
	.st245{fill:url(#SVGID_216_);}
	.st246{fill:url(#SVGID_217_);}
	.st247{fill:url(#SVGID_218_);}
	.st248{fill:url(#SVGID_219_);}
	.st249{fill:url(#SVGID_220_);}
	.st250{filter:url(#Adobe_OpacityMaskFilter_18_);}
	.st251{opacity:0.36;mask:url(#SVGID_221_);}
	.st252{fill:url(#SVGID_222_);}
	.st253{fill:url(#SVGID_223_);}
	.st254{filter:url(#Adobe_OpacityMaskFilter_19_);}
	.st255{opacity:0.51;mask:url(#SVGID_224_);}
	.st256{fill:url(#SVGID_225_);}
	.st257{fill:url(#SVGID_226_);}
	.st258{filter:url(#Adobe_OpacityMaskFilter_20_);}
	.st259{opacity:0.51;mask:url(#SVGID_227_);}
	.st260{fill:url(#SVGID_228_);}
	.st261{fill:url(#SVGID_229_);}
	.st262{fill:url(#SVGID_230_);}
	.st263{fill:url(#SVGID_231_);}
	.st264{fill:url(#SVGID_232_);}
	.st265{fill:url(#SVGID_233_);}
	.st266{fill:url(#SVGID_234_);}
	.st267{fill:url(#SVGID_235_);}
	.st268{fill:url(#SVGID_236_);}
	.st269{fill:url(#SVGID_237_);}
	.st270{filter:url(#Adobe_OpacityMaskFilter_21_);}
	.st271{opacity:0.36;mask:url(#SVGID_238_);}
	.st272{fill:url(#SVGID_239_);}
	.st273{fill:url(#SVGID_240_);}
	.st274{filter:url(#Adobe_OpacityMaskFilter_22_);}
	.st275{opacity:0.36;mask:url(#SVGID_241_);}
	.st276{opacity:0.64;fill:none;stroke:#A5A4A4;stroke-miterlimit:10;}
	.st277{fill:#DCDBDB;}
	.st278{fill:none;stroke:#A5A4A4;stroke-miterlimit:10;}
	.st279{fill:url(#SVGID_242_);}
	.st280{fill:url(#SVGID_243_);}
	.st281{fill:url(#SVGID_244_);}
	.st282{fill:url(#SVGID_245_);}
	.st283{fill:url(#SVGID_246_);}
	.st284{fill:url(#SVGID_247_);}
	.st285{fill:url(#SVGID_248_);}
	.st286{fill:url(#SVGID_249_);}
	.st287{fill:url(#SVGID_250_);}
	.st288{fill:url(#SVGID_251_);}
	.st289{fill:url(#SVGID_252_);}
	.st290{fill:url(#SVGID_253_);}
	.st291{fill:url(#SVGID_254_);}
	.st292{fill:url(#SVGID_255_);}
	.st293{fill:url(#SVGID_256_);}
	.st294{fill:url(#SVGID_257_);}
	.st295{fill:url(#SVGID_258_);}
	.st296{fill:url(#SVGID_259_);}
	.st297{fill:url(#SVGID_260_);}
	.st298{fill:url(#SVGID_261_);}
	.st299{fill:url(#SVGID_262_);}
	.st300{fill:url(#SVGID_263_);}
	.st301{fill:url(#SVGID_264_);}
	.st302{fill:url(#SVGID_265_);}
	.st303{fill:url(#SVGID_266_);}
	.st304{fill:url(#SVGID_267_);}
	.st305{fill:url(#SVGID_268_);}
	.st306{fill:url(#SVGID_269_);}
	.st307{fill:url(#SVGID_270_);}
	.st308{fill:url(#SVGID_271_);}
	.st309{fill:url(#SVGID_272_);}
	.st310{fill:url(#SVGID_273_);}
	.st311{fill:url(#SVGID_274_);}
	.st312{fill:url(#SVGID_275_);}
	.st313{fill:url(#SVGID_276_);}
	.st314{fill:url(#SVGID_277_);}
	.st315{fill:url(#SVGID_278_);}
	.st316{fill:url(#SVGID_279_);}
	.st317{fill:url(#SVGID_280_);}
	.st318{fill:url(#SVGID_281_);}
	.st319{fill:url(#SVGID_282_);}
	.st320{fill:url(#SVGID_283_);}
	.st321{fill:url(#SVGID_284_);}
	.st322{fill:url(#SVGID_285_);}
	.st323{fill:url(#SVGID_286_);}
	.st324{fill:url(#SVGID_287_);}
	.st325{fill:url(#SVGID_288_);}
	.st326{fill:url(#SVGID_289_);}
	.st327{fill:url(#SVGID_290_);}
	.st328{fill:url(#SVGID_291_);}
	.st329{fill:url(#SVGID_292_);}
	.st330{fill:url(#SVGID_293_);}
	.st331{fill:url(#SVGID_294_);}
	.st332{fill:url(#SVGID_295_);}
	.st333{fill:url(#SVGID_296_);}
	.st334{fill:url(#SVGID_297_);}
	.st335{fill:url(#SVGID_298_);}
	.st336{fill:url(#SVGID_299_);}
	.st337{fill:url(#SVGID_300_);}
	.st338{fill:url(#SVGID_301_);}
	.st339{fill:url(#SVGID_302_);}
	.st340{fill:url(#SVGID_303_);}
	.st341{fill:url(#SVGID_304_);}
	.st342{fill:url(#SVGID_305_);}
	.st343{fill:url(#SVGID_306_);}
	.st344{fill:url(#SVGID_307_);}
	.st345{fill:url(#SVGID_308_);}
	.st346{fill:url(#SVGID_309_);}
	.st347{fill:url(#SVGID_310_);}
	.st348{fill:url(#SVGID_311_);}
	.st349{fill:url(#SVGID_312_);}
	.st350{fill:url(#SVGID_313_);}
	.st351{fill:url(#SVGID_314_);}
	.st352{fill:url(#SVGID_315_);}
	.st353{fill:url(#SVGID_316_);}
	.st354{fill:url(#SVGID_317_);}
	.st355{fill:url(#SVGID_318_);}
	.st356{fill:url(#SVGID_319_);}
	.st357{fill:url(#SVGID_320_);}
	.st358{fill:url(#SVGID_321_);}
	.st359{fill:url(#SVGID_322_);}
	.st360{fill:url(#SVGID_323_);}
	.st361{fill:url(#SVGID_324_);}
	.st362{fill:url(#SVGID_325_);}
	.st363{fill:url(#SVGID_326_);}
	.st364{fill:url(#SVGID_327_);}
	.st365{fill:url(#SVGID_328_);}
	.st366{fill:url(#SVGID_329_);}
	.st367{fill:url(#SVGID_330_);}
	.st368{fill:url(#SVGID_331_);}
	.st369{fill:url(#SVGID_332_);}
	.st370{fill:url(#SVGID_333_);}
	.st371{fill:url(#SVGID_334_);}
	.st372{fill:url(#SVGID_335_);}
	.st373{fill:url(#SVGID_336_);}
	.st374{fill:url(#SVGID_337_);}
	.st375{fill:url(#SVGID_338_);}
	.st376{fill:url(#SVGID_339_);}
	.st377{fill:url(#SVGID_340_);}
	.st378{fill:url(#SVGID_341_);}
	.st379{fill:url(#SVGID_342_);}
	.st380{fill:url(#SVGID_343_);}
	.st381{fill:url(#SVGID_344_);}
	.st382{fill:url(#SVGID_345_);}
	.st383{fill:url(#SVGID_346_);}
	.st384{fill:url(#SVGID_347_);}
	.st385{fill:url(#SVGID_348_);}
	.st386{fill:url(#SVGID_349_);}
	.st387{fill:url(#SVGID_350_);}
	.st388{fill:url(#SVGID_351_);}
	.st389{fill:url(#SVGID_352_);}
	.st390{fill:url(#SVGID_353_);}
	.st391{fill:url(#SVGID_354_);}
	.st392{fill:url(#SVGID_355_);}
	.st393{fill:url(#SVGID_356_);}
	.st394{fill:url(#SVGID_357_);}
	.st395{fill:url(#SVGID_358_);}
	.st396{fill:url(#SVGID_359_);}
	.st397{fill:url(#SVGID_360_);}
	.st398{fill:url(#SVGID_361_);}
	.st399{fill:url(#SVGID_362_);}
	.st400{fill:url(#SVGID_363_);}
	.st401{fill:url(#SVGID_364_);}
	.st402{fill:url(#SVGID_365_);}
	.st403{fill:url(#SVGID_366_);}
	.st404{fill:url(#SVGID_367_);}
	.st405{fill:url(#SVGID_368_);}
	.st406{fill:url(#SVGID_369_);}
	.st407{fill:url(#SVGID_370_);}
	.st408{fill:url(#SVGID_371_);}
	.st409{fill:url(#SVGID_372_);}
	.st410{fill:url(#SVGID_373_);}
	.st411{fill:url(#SVGID_374_);}
	.st412{fill:url(#SVGID_375_);}
	.st413{fill:url(#SVGID_376_);}
	.st414{fill:url(#SVGID_377_);}
	.st415{fill:url(#SVGID_378_);}
	.st416{fill:url(#SVGID_379_);}
	.st417{fill:url(#SVGID_380_);}
	.st418{fill:url(#SVGID_381_);}
	.st419{fill:url(#SVGID_382_);}
	.st420{fill:url(#SVGID_383_);}
	.st421{fill:url(#SVGID_384_);}
	.st422{fill:url(#SVGID_385_);}
	.st423{fill:url(#SVGID_386_);}
	.st424{fill:url(#SVGID_387_);}
	.st425{fill:url(#SVGID_388_);}
	.st426{fill:url(#SVGID_389_);}
	.st427{fill:url(#SVGID_390_);}
	.st428{fill:url(#SVGID_391_);}
	.st429{fill:url(#SVGID_392_);}
	.st430{fill:url(#SVGID_393_);}
	.st431{fill:url(#SVGID_394_);}
	.st432{fill:url(#SVGID_395_);}
	.st433{fill:url(#SVGID_396_);}
	.st434{fill:url(#SVGID_397_);}
	.st435{fill:url(#SVGID_398_);}
	.st436{fill:url(#SVGID_399_);}
	.st437{fill:url(#SVGID_400_);}
	.st438{fill:url(#SVGID_401_);}
	.st439{fill:url(#SVGID_402_);}
	.st440{fill:url(#SVGID_403_);}
	.st441{fill:url(#SVGID_404_);}
	.st442{fill:url(#SVGID_405_);}
	.st443{fill:url(#SVGID_406_);}
	.st444{fill:url(#SVGID_407_);}
	.st445{fill:url(#SVGID_408_);}
	.st446{fill:url(#SVGID_409_);}
	.st447{fill:url(#SVGID_410_);}
	.st448{fill:url(#SVGID_411_);}
	.st449{fill:url(#SVGID_412_);}
	.st450{fill:url(#SVGID_413_);}
	.st451{fill:url(#SVGID_414_);}
	.st452{fill:url(#SVGID_415_);}
	.st453{fill:url(#SVGID_416_);}
	.st454{fill:url(#SVGID_417_);}
	.st455{fill:url(#SVGID_418_);}
	.st456{fill:url(#SVGID_419_);}
	.st457{fill:url(#SVGID_420_);}
	.st458{fill:url(#SVGID_421_);}
	.st459{fill:url(#SVGID_422_);}
	.st460{fill:url(#SVGID_423_);}
	.st461{fill:url(#SVGID_424_);}
	.st462{fill:url(#SVGID_425_);}
	.st463{fill:url(#SVGID_426_);}
	.st464{fill:url(#SVGID_427_);}
	.st465{fill:url(#SVGID_428_);}
	.st466{fill:url(#SVGID_429_);}
	.st467{fill:url(#SVGID_430_);}
	.st468{fill:url(#SVGID_431_);}
	.st469{fill:url(#SVGID_432_);}
	.st470{fill:url(#SVGID_433_);}
	.st471{fill:url(#SVGID_434_);}
	.st472{fill:#F04C23;}
	.st473{fill:url(#SVGID_435_);}
	.st474{fill:url(#SVGID_436_);}
	.st475{fill:url(#SVGID_437_);}
	.st476{fill:url(#SVGID_438_);}
	.st477{fill:url(#SVGID_439_);}
	.st478{fill:url(#SVGID_440_);}
</style>
<g>
	<path class="st1" d="M7.2,28.7c-1.2-1.2-2.1-2.6-2.7-4.3c-0.6-1.7-1-3.5-1-5.5c0-2.1,0.3-3.9,1-5.6c0.6-1.7,1.6-3.1,2.8-4.2
		C8.4,8,9.8,7.2,11.4,6.6c1.6-0.6,3.3-0.9,5.1-0.9c1.8,0,3.5,0.3,5.1,0.9c1.6,0.6,2.9,1.4,4.1,2.5c1.2,1.1,2.2,2.6,2.8,4.2
		c0.6,1.7,1,3.5,1,5.6c0,4.3-1.1,7.6-3.4,9.9c-2.3,2.3-5.5,3.4-9.6,3.3c-1.9,0-3.6-0.3-5.2-0.9C9.7,30.7,8.3,29.8,7.2,28.7z
		 M16.5,26.4c1.8,0,3.2-0.6,4.2-1.9c1-1.3,1.5-3.1,1.5-5.5c0-2.4-0.5-4.2-1.5-5.5c-1-1.3-2.4-1.9-4.1-1.9c-1.8,0-3.2,0.6-4.2,1.9
		s-1.5,3.1-1.5,5.5c0,2.4,0.5,4.2,1.5,5.5S14.7,26.4,16.5,26.4z M29.1,34l-0.1,0.6c-0.2,1.2-0.6,2.1-1.4,2.8c-0.7,0.6-1.6,1-2.7,1
		c-2.7,0-5.4-1.8-8-5.3l0.7,0c2.1,0.1,4.3-0.4,6.6-1.6l0.2-0.1l3,1.6C28.6,33.6,29.1,33.9,29.1,34z"/>
	<path class="st1" d="M32.9,11.8c0.5-0.3,1-0.5,1.6-0.4l0.8,0c1.4,0,2.4,0.2,3,0.7c0.6,0.5,0.9,1.3,0.9,2.5v8.8
		c0,2.1,1.1,3.1,3.2,3.1c1,0,1.8-0.2,2.5-0.5V13.7c0-0.9,0.2-1.6,0.7-1.9c0.5-0.3,1-0.5,1.6-0.4l0.8,0c1.4,0,2.4,0.2,3,0.7
		c0.6,0.5,0.9,1.3,0.9,2.5v12.5c0,1.2-0.4,2.1-1.3,2.8c-0.8,0.7-2.1,1.2-3.9,1.6c-1.3,0.3-2.8,0.5-4.3,0.5c-3.3,0-5.8-0.7-7.5-2.2
		c-1.8-1.4-2.6-3.6-2.6-6.4v-9.8C32.2,12.7,32.5,12.1,32.9,11.8z"/>
	<path class="st1" d="M55.9,28.9c-1.8-1.9-2.8-4.3-2.8-7.3c0-0.7,0-1.2,0-1.3c0.2-3.1,1.3-5.4,3.1-7c1.8-1.6,4.1-2.4,6.9-2.4
		c1.6,0,3.1,0.3,4.4,0.8s2.5,1.3,3.4,2.3c1.4,1.6,2.2,3.5,2.2,5.7c0,0.4,0,0.7,0,0.8c-0.1,0.9-0.4,1.6-0.9,2.1
		C71.7,23,71,23.3,70,23.3H59.4c0.2,1,1,1.9,2.2,2.7c1.2,0.8,2.5,1.1,3.9,1.1c1.1,0,2.2-0.1,3.1-0.4c0.3-0.1,0.7-0.2,1.2-0.2
		c0.6,0,1.1,0.2,1.4,0.7c0.3,0.4,0.4,1,0.4,1.6c0,1.1-0.4,1.9-1.3,2.5c-0.9,0.6-2.1,0.9-3.7,1L65,32.2l-1.5-0.1
		C60.3,31.9,57.7,30.8,55.9,28.9z M59.6,18.9l7.1,0.1c0-0.8-0.3-1.5-0.9-2.2c-0.7-0.6-1.5-0.9-2.5-0.9c-0.8,0-1.6,0.3-2.3,0.8
		C60.3,17.2,59.8,18,59.6,18.9z"/>
	<path class="st1" d="M78.1,9.1c1.1-1.1,2.5-1.9,4.1-2.5c1.6-0.6,3.3-0.9,5.1-0.9c1.8,0,3.5,0.3,5.1,0.9C94,7.2,95.4,8,96.5,9.1
		c1.2,1.1,2.2,2.6,2.8,4.2c0.6,1.7,1,3.5,1,5.6c0,2-0.3,3.9-1,5.5c-0.6,1.7-1.6,3.1-2.7,4.3c-1.1,1.1-2.5,2-4.1,2.5
		c-1.6,0.6-3.3,0.9-5.2,0.9c-1.9,0-3.6-0.3-5.2-0.9c-1.6-0.6-3-1.4-4.1-2.6c-1.2-1.2-2.1-2.6-2.7-4.3c-0.6-1.7-1-3.5-1-5.5
		c0-2.1,0.3-3.9,1-5.6C75.9,11.7,76.9,10.3,78.1,9.1z M87.3,26.4c1.8,0,3.2-0.6,4.2-1.9c1-1.3,1.5-3.1,1.5-5.5
		c0-2.4-0.5-4.2-1.5-5.5c-1-1.3-2.4-1.9-4.1-1.9c-1.8,0-3.2,0.6-4.2,1.9s-1.5,3.1-1.5,5.5c0,2.4,0.5,4.2,1.5,5.5
		S85.5,26.4,87.3,26.4z"/>
	<path class="st1" d="M122.1,21.5c0,3.4-0.9,6-2.7,7.8c-1.8,1.8-4.3,2.7-7.6,2.7c-1.3,0-2.4-0.2-3.3-0.5v4.9c0,1.6-0.8,2.4-2.3,2.3
		h-0.9c-1.4,0-2.4-0.2-3-0.7c-0.6-0.5-0.9-1.3-0.9-2.6V15.7c0-0.7,0.1-1.3,0.4-1.7c0.3-0.5,0.7-0.9,1.4-1.4c0.8-0.6,1.9-1,3.2-1.3
		c1.3-0.3,2.7-0.5,4.2-0.5c3.6,0,6.3,0.9,8.2,2.6C121.1,15.3,122.1,18,122.1,21.5z M110.9,16.3c-0.8,0-1.7,0.2-2.5,0.6v9
		c0.8,0.4,1.6,0.6,2.3,0.6c2.8,0,4.2-1.7,4.2-5C115,18,113.6,16.3,110.9,16.3z"/>
	<path class="st1" d="M127.2,2.2c1.1,0,2,0.3,2.7,1c0.7,0.7,1.1,1.6,1.1,2.6c0,1.1-0.4,1.9-1.1,2.6c-0.7,0.7-1.6,1-2.7,1
		c-1.1,0-2-0.3-2.7-1c-0.7-0.7-1.1-1.6-1.1-2.6c0-1.1,0.4-1.9,1.1-2.6C125.1,2.6,126.1,2.2,127.2,2.2z M130,31.3
		c-0.4,0.3-1,0.4-1.6,0.4h-0.9c-1.4,0-2.4-0.2-3-0.7c-0.6-0.5-0.9-1.3-0.9-2.5V13.7c0-0.9,0.2-1.5,0.6-1.8s0.9-0.5,1.6-0.5l0.9,0
		c1.4,0,2.4,0.2,3,0.7c0.6,0.5,0.9,1.3,0.9,2.5v14.8C130.7,30.4,130.5,31,130,31.3z"/>
	<path class="st1" d="M144.2,16.9c-0.5-0.4-1.1-0.6-2-0.6c-1.2,0-2.2,0.3-3,0.8v12.4c0,0.9-0.2,1.6-0.7,1.9c-0.5,0.3-1,0.5-1.6,0.4
		l-0.8,0c-1.4,0-2.4-0.2-3-0.7c-0.6-0.5-0.9-1.3-0.9-2.5V16.2c0-0.7,0.1-1.3,0.4-1.7s0.7-0.9,1.4-1.4c1-0.7,2.2-1.2,3.7-1.6
		c1.4-0.4,2.9-0.6,4.6-0.6c3.1,0,5.5,0.7,7.1,2c1.7,1.4,2.5,3.2,2.5,5.6v11c0,0.9-0.2,1.6-0.7,1.9s-1,0.5-1.6,0.4l-0.8,0
		c-1.4,0-2.4-0.2-3-0.7c-0.6-0.5-0.9-1.3-0.9-2.5v-9.7C144.9,18,144.6,17.3,144.2,16.9z"/>
	<path class="st1" d="M172.1,18.4v9.2c0,0.6-0.2,1.2-0.5,1.6c-0.3,0.5-0.8,0.9-1.5,1.3c-1.8,1.1-4.3,1.6-7.5,1.6c-3,0-5.4-0.6-7-1.7
		c-1.7-1.1-2.5-2.8-2.5-5c0-1.9,0.6-3.3,1.7-4.3s2.9-1.6,5.2-1.9l5.4-0.6v-0.3c0-1.5-1.4-2.2-4.1-2.2c-1.2,0-2.5,0.2-4.1,0.6
		c-0.5,0.1-0.9,0.2-1.2,0.2c-0.5,0-1-0.2-1.3-0.7c-0.3-0.5-0.5-1-0.5-1.7c0-0.7,0.2-1.3,0.5-1.7s0.9-0.8,1.6-1.1
		c1.4-0.6,3.4-0.9,5.9-0.9c3.2,0,5.6,0.6,7.3,1.9S172.1,15.9,172.1,18.4z M165.4,26.5v-3.3l-3,0.2c-1.8,0.1-2.6,0.7-2.6,1.7
		c0,1.2,0.9,1.8,2.8,1.8c0.5,0,1.1,0,1.6-0.1C164.7,26.7,165.1,26.6,165.4,26.5z"/>
	<path class="st1" d="M181.4,32.1c-2.5,0-4.4-0.4-5.8-1.1c-1.4-0.7-2.1-1.7-2.1-3.1c0-0.7,0.1-1.2,0.4-1.7s0.7-0.7,1.3-0.7
		c0.5,0,0.9,0.1,1.3,0.3c1.6,0.6,3.2,0.9,4.7,0.9c0.8,0,1.5-0.1,1.9-0.4s0.7-0.6,0.7-1c0-0.4-0.2-0.7-0.5-0.9s-0.9-0.4-1.6-0.5
		l-1.2-0.2c-2.5-0.5-4.3-1.2-5.4-2.3c-1.1-1-1.7-2.4-1.7-4.2c0-1,0.2-1.9,0.7-2.7c0.4-0.8,1.1-1.5,1.8-2.1c1.7-1.1,3.8-1.7,6.5-1.7
		c2.3,0,4.1,0.3,5.4,1c1.3,0.7,1.9,1.6,1.9,2.8c0,0.7-0.1,1.2-0.4,1.7c-0.3,0.5-0.7,0.7-1.3,0.7c-0.2,0-0.5,0-0.7-0.1l-1.2-0.4
		c-1.1-0.3-2.1-0.4-3-0.4c-1,0-1.7,0.1-2.1,0.3c-0.5,0.2-0.7,0.5-0.7,1c0,0.3,0.1,0.5,0.4,0.7s0.8,0.4,1.6,0.5l1.3,0.3
		c2.5,0.6,4.4,1.4,5.5,2.4c1.1,1,1.7,2.4,1.7,4.1c0,2.1-0.8,3.8-2.4,4.9S184.4,32.1,181.4,32.1z"/>
	<path class="st1" d="M193.8,27.6c0.6,0,1.1,0.2,1.5,0.6c0.4,0.4,0.6,0.9,0.6,1.5c0,0.6-0.2,1.1-0.6,1.5c-0.4,0.4-0.9,0.6-1.5,0.6
		c-0.6,0-1.1-0.2-1.5-0.6c-0.4-0.4-0.6-0.9-0.6-1.5c0-0.6,0.2-1.1,0.6-1.5C192.7,27.8,193.2,27.6,193.8,27.6z"/>
	<path class="st1" d="M200.1,26.3c0,0.8,0.2,1.5,0.7,1.9s1.1,0.7,1.9,0.7c0.4,0,0.8,0,1.1-0.1c0.3-0.1,0.5-0.1,0.7-0.1
		c0.3,0,0.5,0.1,0.7,0.4s0.3,0.5,0.3,0.9c0,0.6-0.3,1-0.8,1.3c-0.5,0.3-1.3,0.5-2.3,0.5c-0.8,0-1.6-0.1-2.4-0.4
		c-0.7-0.3-1.4-0.6-1.9-1.1c-0.5-0.5-0.9-1-1.2-1.7c-0.3-0.7-0.4-1.4-0.4-2.2c0-0.9,0.1-1.7,0.4-2.4c0.3-0.7,0.7-1.3,1.3-1.8
		c0.5-0.5,1.1-0.8,1.8-1c0.7-0.2,1.4-0.3,2.2-0.3c1,0,1.8,0.2,2.3,0.5c0.6,0.4,0.8,0.8,0.8,1.4c0,0.3-0.1,0.6-0.2,0.8
		c-0.1,0.2-0.4,0.3-0.7,0.3c-0.1,0-0.3,0-0.4-0.1c-0.4-0.1-0.8-0.2-1.3-0.2c-0.8,0-1.4,0.2-1.9,0.7
		C200.3,24.9,200.1,25.5,200.1,26.3z"/>
	<path class="st1" d="M211.3,31.8c-1.7,0-3-0.5-4-1.5c-1-1-1.5-2.3-1.5-4c0-0.8,0.1-1.6,0.4-2.3c0.3-0.7,0.6-1.3,1.1-1.7
		c1-1,2.3-1.5,4-1.5c0.8,0,1.5,0.1,2.2,0.4c0.7,0.3,1.3,0.6,1.8,1.1s0.9,1.1,1.1,1.7c0.3,0.7,0.4,1.4,0.4,2.2c0,1.7-0.5,3.1-1.5,4
		C214.3,31.3,213,31.8,211.3,31.8z M211.3,28.9c0.6,0,1-0.2,1.4-0.7s0.5-1.1,0.5-2c0-0.8-0.2-1.5-0.5-2c-0.3-0.5-0.8-0.7-1.4-0.7
		s-1,0.2-1.4,0.7c-0.3,0.5-0.5,1.1-0.5,2c0,0.8,0.2,1.5,0.5,2S210.7,28.9,211.3,28.9z"/>
	<path class="st1" d="M227.1,21.1c0.5-0.2,1.1-0.2,1.8-0.2c0.6,0,1.1,0.1,1.6,0.2s1,0.4,1.3,0.6c0.9,0.7,1.3,1.7,1.3,3v5.7
		c0,0.5-0.1,0.8-0.4,1c-0.2,0.2-0.5,0.2-0.8,0.2l-0.4,0c-0.7,0-1.2-0.1-1.5-0.4c-0.3-0.3-0.5-0.7-0.5-1.3v-5.1
		c0-0.8-0.4-1.2-1.3-1.2c-0.2,0-0.3,0-0.6,0.1c-0.2,0.1-0.4,0.2-0.6,0.3c0,0,0,0.1,0,0.1v6.2c0,0.5-0.1,0.8-0.4,1
		c-0.2,0.2-0.5,0.2-0.8,0.2l-0.4,0c-0.7,0-1.2-0.1-1.5-0.4c-0.3-0.3-0.5-0.7-0.5-1.3v-5.1c0-0.4-0.1-0.7-0.3-0.9
		c-0.2-0.2-0.6-0.3-1-0.3c-0.4,0-0.8,0.1-1.1,0.3v6.4c0,0.5-0.1,0.8-0.4,1c-0.2,0.2-0.5,0.2-0.8,0.2l-0.4,0c-0.7,0-1.2-0.1-1.5-0.4
		c-0.3-0.3-0.5-0.7-0.5-1.3v-6.4c0-0.3,0.1-0.6,0.2-0.9c0.1-0.2,0.4-0.5,0.7-0.7c0.5-0.3,1.1-0.6,1.8-0.8s1.5-0.3,2.2-0.3
		c1.3,0,2.3,0.3,3.1,1C226,21.5,226.5,21.2,227.1,21.1z"/>
</g>
</svg>
