<?xml version="1.0" encoding="utf-8"?>
<!-- Generator: Adobe Illustrator 23.0.0, SVG Export Plug-In . SVG Version: 6.00 Build 0)  -->
<svg version="1.1" id="Layer_1" xmlns="http://www.w3.org/2000/svg" xmlns:xlink="http://www.w3.org/1999/xlink" x="0px" y="0px"
	 viewBox="0 0 587.87 400.26" style="enable-background:new 0 0 587.87 400.26;" xml:space="preserve">
<style type="text/css">
	.st0{opacity:0.6;}
	.st1{fill:#FFFFFF;}
</style>
<g class="st0">
	<circle class="st1" cx="7.28" cy="19.29" r="3.7"/>
	<circle class="st1" cx="21.25" cy="19.29" r="3.7"/>
	<circle class="st1" cx="35.22" cy="19.29" r="3.7"/>
	<circle class="st1" cx="49.2" cy="19.29" r="3.7"/>
	<circle class="st1" cx="63.17" cy="19.29" r="3.7"/>
	<circle class="st1" cx="77.14" cy="19.29" r="3.7"/>
	<circle class="st1" cx="91.11" cy="19.29" r="3.7"/>
	<circle class="st1" cx="105.08" cy="19.29" r="3.7"/>
	<circle class="st1" cx="119.05" cy="19.29" r="3.7"/>
	<circle class="st1" cx="133.03" cy="19.29" r="3.7"/>
</g>
<g class="st0">
	<circle class="st1" cx="149.42" cy="19.29" r="3.7"/>
	<circle class="st1" cx="163.39" cy="19.29" r="3.7"/>
	<circle class="st1" cx="177.37" cy="19.29" r="3.7"/>
	<circle class="st1" cx="191.34" cy="19.29" r="3.7"/>
	<circle class="st1" cx="205.31" cy="19.29" r="3.7"/>
	<circle class="st1" cx="219.28" cy="19.29" r="3.7"/>
	<circle class="st1" cx="233.25" cy="19.29" r="3.7"/>
	<circle class="st1" cx="247.22" cy="19.29" r="3.7"/>
	<circle class="st1" cx="261.2" cy="19.29" r="3.7"/>
	<circle class="st1" cx="275.17" cy="19.29" r="3.7"/>
	<circle class="st1" cx="289.14" cy="19.29" r="3.7"/>
	<circle class="st1" cx="303.11" cy="19.29" r="3.7"/>
	<circle class="st1" cx="317.08" cy="19.29" r="3.7"/>
	<circle class="st1" cx="331.05" cy="19.29" r="3.7"/>
	<circle class="st1" cx="345.03" cy="19.29" r="3.7"/>
</g>
<g>
	<path class="st1" d="M266.79,250.62h-4.97v9.93h4.97c19.19-0.02,34.74-15.57,34.77-34.77v-54.63c0-41.15-33.35-74.5-74.5-74.5
		s-74.5,33.35-74.5,74.5v54.63c0.02,19.19,15.57,34.74,34.77,34.77h4.97v-9.93h-4.97c-13.71-0.02-24.82-11.13-24.83-24.83v-54.63
		c0-35.66,28.91-64.57,64.57-64.57s64.57,28.91,64.57,64.57v54.63C291.61,239.5,280.5,250.61,266.79,250.62z"/>
	<path class="st1" d="M172.28,325.01l-8.39-5.32l-3.63,5.72c-10.98,17.3-10.17,39.58,2.05,56.04v13.21h9.93v-14.9
		c0-1.13-0.38-2.22-1.09-3.1c-10.56-13.2-11.57-31.65-2.51-45.92L172.28,325.01z"/>
	<path class="st1" d="M281.86,379.76v14.9h9.93v-13.21c12.22-16.45,13.03-38.74,2.05-56.04l-3.63-5.72l-8.39,5.32l3.63,5.72
		c9.06,14.27,8.05,32.72-2.51,45.92C282.25,377.53,281.86,378.63,281.86,379.76z"/>
	<path class="st1" d="M137.66,305.26c0.02-13.71,11.13-24.82,24.83-24.83h15.8l44.72,62.49c0.92,1.28,2.39,2.06,3.97,2.08h0.06
		c1.56,0,3.04-0.74,3.97-1.99l47.18-62.58h13.41c13.71,0.02,24.82,11.13,24.83,24.83v39.73c0,2.74,2.23,4.96,4.97,4.96
		c1.8,0,3.46-0.98,4.34-2.55l23.41-42.14h28.47l-48.43,89.4h11.3l48.44-89.4h1.99c19.19-0.02,34.74-15.57,34.77-34.77
		c0-2.74-2.22-4.97-4.97-4.97h-44.7c-18.63,0.02-33.94,14.73-34.7,33.35l-14.97,26.95v-20.57c-0.02-19.19-15.57-34.74-34.77-34.77
		h-18.15l-0.13-0.1l-0.09,0.1h-11.42c-5.49,0-9.93-4.45-9.93-9.93v-11.69c15.35-8.86,24.81-25.23,24.83-42.95v-39.73
		c-0.01-8.23-2.06-16.33-5.96-23.57c-1.25-2.3-4.08-3.24-6.46-2.14l-84.07,39.55c-1.74,0.82-2.85,2.57-2.85,4.49v21.39
		c0.02,17.72,9.49,34.09,24.83,42.95v11.69c0,5.49-4.45,9.93-9.93,9.93h-29.8c-19.19,0.02-34.74,15.57-34.77,34.77v89.4h9.93V305.26
		z M376.06,275.46h39.24c-2.37,11.56-12.54,19.85-24.34,19.87h-39.24C354.09,283.77,364.26,275.47,376.06,275.46z M227.16,331.64
		l-15.33-21.42h31.47L227.16,331.64z M187.32,205.92v-18.24l76.69-36.09c1.83,4.65,2.78,9.6,2.78,14.59v39.73
		c0,21.94-17.79,39.73-39.73,39.73S187.32,227.87,187.32,205.92z M192.29,280.42c10.97,0,19.87-8.89,19.87-19.87v-7.26
		c9.7,3.05,20.1,3.05,29.8,0v7.26c0,10.97,8.89,19.87,19.87,19.87h3.97l-14.98,19.87h-46.11l-14.22-19.87H192.29z"/>
	<path class="st1" d="M209.4,195.41h9.25v-4.63c0-7.67-6.22-13.88-13.88-13.88s-13.88,6.22-13.88,13.88v4.63h9.25v-4.63
		c0-2.56,2.07-4.63,4.63-4.63s4.63,2.07,4.63,4.63V195.41z"/>
	<path class="st1" d="M246.42,190.78c0-2.56,2.07-4.63,4.63-4.63s4.63,2.07,4.63,4.63v4.63h9.25v-4.63
		c0-7.67-6.22-13.88-13.88-13.88s-13.88,6.22-13.88,13.88v4.63h9.25V190.78z"/>
	<path class="st1" d="M227.91,232.43c10.22,0,18.51-8.29,18.51-18.51v-4.63h-9.25v4.63c0,5.11-4.14,9.25-9.25,9.25
		c-5.11,0-9.25-4.14-9.25-9.25v-4.63h-9.25v4.63C209.4,224.14,217.69,232.43,227.91,232.43z"/>
</g>
<g>
	<g>
		<path class="st1" d="M563.24,230.4H378.21c-9.64,0-17.48-7.84-17.48-17.48V24.48c0-9.64,7.84-17.48,17.48-17.48h185.03
			c9.64,0,17.48,7.84,17.48,17.48v188.43C580.72,222.56,572.88,230.4,563.24,230.4z M378.21,17.68c-3.75,0-6.8,3.05-6.8,6.8v188.43
			c0,3.75,3.05,6.8,6.8,6.8h185.03c3.75,0,6.8-3.05,6.8-6.8V24.48c0-3.75-3.05-6.8-6.8-6.8H378.21z"/>
		
			<rect x="367.04" y="53.26" transform="matrix(1 -4.749591e-03 4.749591e-03 1 -0.2731 2.2283)" class="st1" width="203.98" height="10.68"/>
		<circle class="st1" cx="388.37" cy="37.07" r="6.27"/>
		<circle class="st1" cx="410.71" cy="37.07" r="6.27"/>
		<circle class="st1" cx="432.56" cy="37.07" r="6.27"/>
		<path class="st1" d="M400.43,116.88c-8.26,0-14.97-6.72-14.97-14.97c0-8.26,6.72-14.97,14.97-14.97s14.97,6.72,14.97,14.97
			C415.4,110.16,408.68,116.88,400.43,116.88z M400.43,92.76c-5.04,0-9.15,4.1-9.15,9.15s4.1,9.15,9.15,9.15s9.15-4.1,9.15-9.15
			S405.47,92.76,400.43,92.76z"/>
		<path class="st1" d="M400.43,166.98c-8.26,0-14.97-6.72-14.97-14.97c0-8.26,6.72-14.97,14.97-14.97s14.97,6.72,14.97,14.97
			C415.4,160.27,408.68,166.98,400.43,166.98z M400.43,142.86c-5.04,0-9.15,4.1-9.15,9.15c0,5.04,4.1,9.15,9.15,9.15
			s9.15-4.1,9.15-9.15C409.57,146.97,405.47,142.86,400.43,142.86z"/>
		<path class="st1" d="M540.9,106.68H435.03c-3.21,0-5.83-2.62-5.83-5.83v0c0-3.21,2.62-5.83,5.83-5.83H540.9
			c3.21,0,5.83,2.62,5.83,5.83v0C546.73,104.06,544.11,106.68,540.9,106.68z"/>
		<g>
			<path class="st1" d="M436.83,147.03h6.79v8.06c-0.98,0.72-2.02,1.24-3.13,1.56s-2.26,0.49-3.47,0.49c-1.57,0-3.01-0.25-4.29-0.74
				c-1.29-0.49-2.39-1.18-3.31-2.04c-0.92-0.87-1.63-1.9-2.12-3.09c-0.5-1.19-0.75-2.49-0.75-3.89c0-1.42,0.24-2.73,0.71-3.93
				c0.47-1.19,1.15-2.22,2.03-3.09c0.88-0.87,1.94-1.54,3.19-2.02c1.25-0.48,2.64-0.72,4.18-0.72c0.8,0,1.54,0.07,2.24,0.2
				s1.34,0.31,1.93,0.54c0.59,0.23,1.13,0.5,1.62,0.81s0.93,0.66,1.31,1.02l-1.29,1.95c-0.2,0.31-0.46,0.49-0.78,0.56
				c-0.32,0.07-0.66-0.01-1.03-0.24c-0.35-0.21-0.68-0.39-0.99-0.54c-0.31-0.15-0.63-0.28-0.95-0.37c-0.32-0.1-0.67-0.17-1.02-0.21
				s-0.76-0.07-1.21-0.07c-0.83,0-1.58,0.15-2.24,0.44s-1.23,0.71-1.7,1.24s-0.83,1.17-1.08,1.92c-0.25,0.75-0.38,1.58-0.38,2.5
				c0,1.01,0.14,1.91,0.42,2.7c0.28,0.79,0.67,1.45,1.19,1.99c0.51,0.54,1.12,0.96,1.84,1.24c0.71,0.28,1.5,0.43,2.37,0.43
				c0.53,0,1.02-0.05,1.45-0.16c0.43-0.11,0.85-0.25,1.27-0.42v-2.9h-1.89c-0.28,0-0.5-0.07-0.66-0.22
				c-0.16-0.15-0.24-0.34-0.24-0.56V147.03z"/>
			<path class="st1" d="M463.45,156.93h-3.43c-0.38,0-0.7-0.09-0.93-0.27c-0.24-0.18-0.42-0.41-0.54-0.69l-1.13-3.33h-7.26
				l-1.13,3.33c-0.1,0.25-0.27,0.46-0.52,0.66c-0.25,0.2-0.56,0.29-0.92,0.29h-3.46l7.4-19.11h4.54L463.45,156.93z M456.41,149.63
				l-1.77-5.23c-0.13-0.33-0.27-0.72-0.42-1.17c-0.15-0.45-0.3-0.94-0.45-1.46c-0.13,0.53-0.27,1.03-0.42,1.48
				c-0.15,0.45-0.29,0.85-0.42,1.18l-1.76,5.21H456.41z"/>
			<path class="st1" d="M481.63,137.83v19.11h-2.31c-0.34,0-0.63-0.05-0.86-0.16s-0.46-0.3-0.69-0.57l-9.01-11.39
				c0.04,0.34,0.06,0.67,0.07,0.99c0.01,0.32,0.02,0.62,0.02,0.9v10.24h-3.91v-19.11h2.33c0.19,0,0.35,0.01,0.48,0.03
				c0.13,0.02,0.25,0.05,0.35,0.1c0.1,0.05,0.21,0.12,0.3,0.2c0.1,0.09,0.21,0.21,0.33,0.35l9.09,11.47
				c-0.04-0.37-0.08-0.72-0.09-1.07c-0.02-0.34-0.03-0.67-0.03-0.98v-10.11H481.63z"/>
			<path class="st1" d="M502.47,156.93h-3.44c-0.38,0-0.7-0.09-0.93-0.27c-0.24-0.18-0.42-0.41-0.54-0.69l-1.13-3.33h-7.26
				l-1.13,3.33c-0.1,0.25-0.27,0.46-0.52,0.66c-0.25,0.2-0.56,0.29-0.92,0.29h-3.46l7.4-19.11h4.54L502.47,156.93z M495.43,149.63
				l-1.77-5.23c-0.13-0.33-0.27-0.72-0.42-1.17s-0.3-0.94-0.45-1.46c-0.13,0.53-0.27,1.03-0.42,1.48s-0.29,0.85-0.42,1.18
				l-1.76,5.21H495.43z"/>
			<path class="st1" d="M519.61,156.93h-4.01c-0.74,0-1.28-0.28-1.6-0.84l-3.17-5.55c-0.15-0.24-0.31-0.41-0.5-0.52
				s-0.45-0.16-0.79-0.16h-1.13v7.07h-4.43v-19.11h6.22c1.38,0,2.56,0.14,3.53,0.43s1.77,0.68,2.39,1.19s1.06,1.11,1.34,1.8
				c0.28,0.69,0.42,1.44,0.42,2.25c0,0.62-0.08,1.21-0.25,1.76s-0.41,1.06-0.73,1.53s-0.72,0.88-1.2,1.25s-1.02,0.67-1.65,0.9
				c0.29,0.15,0.56,0.33,0.81,0.56c0.25,0.22,0.48,0.49,0.68,0.79L519.61,156.93z M510.19,146.81c0.6,0,1.12-0.08,1.54-0.23
				c0.42-0.15,0.77-0.36,1.04-0.64c0.27-0.27,0.47-0.59,0.59-0.95c0.12-0.36,0.18-0.75,0.18-1.17c0-0.84-0.27-1.5-0.82-1.97
				c-0.55-0.47-1.39-0.71-2.54-0.71h-1.78v5.66H510.19z"/>
			<path class="st1" d="M444.98,178.85c0,1.38-0.24,2.66-0.71,3.82s-1.15,2.18-2.01,3.03s-1.91,1.52-3.13,1.99
				c-1.22,0.48-2.57,0.71-4.06,0.71h-7.42V169.3h7.42c1.49,0,2.84,0.24,4.06,0.72c1.22,0.48,2.26,1.15,3.13,1.99
				s1.54,1.86,2.01,3.02S444.98,177.47,444.98,178.85z M440.45,178.85c0-0.94-0.12-1.8-0.37-2.56s-0.6-1.41-1.06-1.93
				c-0.46-0.53-1.02-0.94-1.68-1.22c-0.67-0.28-1.42-0.43-2.27-0.43h-2.96V185h2.96c0.85,0,1.6-0.14,2.27-0.43
				c0.66-0.28,1.23-0.69,1.68-1.22c0.46-0.53,0.81-1.17,1.06-1.93S440.45,179.8,440.45,178.85z"/>
			<path class="st1" d="M452.06,188.4h-4.46V169.3h4.46V188.4z"/>
			<path class="st1" d="M472.44,169.3v19.11h-2.31c-0.34,0-0.63-0.05-0.86-0.16s-0.46-0.3-0.69-0.57l-9.01-11.39
				c0.04,0.34,0.06,0.67,0.07,0.99c0.01,0.32,0.02,0.62,0.02,0.9v10.24h-3.91V169.3h2.33c0.19,0,0.35,0.01,0.48,0.03
				c0.13,0.02,0.25,0.05,0.35,0.1c0.1,0.05,0.21,0.12,0.3,0.2c0.1,0.09,0.21,0.21,0.33,0.35l9.09,11.47
				c-0.04-0.37-0.08-0.72-0.09-1.07c-0.02-0.34-0.03-0.67-0.03-0.98V169.3H472.44z"/>
			<path class="st1" d="M480.6,172.71v4.46h6v3.28h-6V185h7.84v3.41h-12.3V169.3h12.3v3.41H480.6z"/>
			<path class="st1" d="M506.8,188.4h-4.01c-0.74,0-1.28-0.28-1.6-0.84l-3.17-5.55c-0.15-0.24-0.31-0.41-0.5-0.52
				s-0.45-0.16-0.79-0.16h-1.13v7.07h-4.43V169.3h6.22c1.38,0,2.56,0.14,3.53,0.43s1.77,0.68,2.39,1.19s1.06,1.11,1.34,1.8
				c0.28,0.69,0.42,1.44,0.42,2.25c0,0.62-0.08,1.21-0.25,1.76s-0.41,1.06-0.73,1.53s-0.72,0.88-1.2,1.25s-1.02,0.67-1.65,0.9
				c0.29,0.15,0.56,0.33,0.81,0.56c0.25,0.22,0.48,0.49,0.68,0.79L506.8,188.4z M497.38,178.28c0.6,0,1.12-0.08,1.54-0.23
				c0.42-0.15,0.77-0.36,1.04-0.64c0.27-0.27,0.47-0.59,0.59-0.95c0.12-0.36,0.18-0.75,0.18-1.17c0-0.84-0.27-1.5-0.82-1.97
				c-0.55-0.47-1.39-0.71-2.54-0.71h-1.78v5.66H497.38z"/>
			<path class="st1" d="M526.82,178.85c0,1.38-0.24,2.67-0.71,3.85c-0.48,1.19-1.15,2.22-2.01,3.1c-0.87,0.88-1.91,1.57-3.13,2.06
				c-1.22,0.5-2.57,0.75-4.06,0.75s-2.84-0.25-4.06-0.75c-1.22-0.5-2.27-1.19-3.14-2.06c-0.87-0.88-1.54-1.91-2.02-3.1
				c-0.48-1.19-0.71-2.47-0.71-3.85c0-1.38,0.24-2.67,0.71-3.86s1.15-2.22,2.02-3.09c0.87-0.87,1.92-1.56,3.14-2.06
				c1.22-0.5,2.58-0.75,4.06-0.75s2.84,0.25,4.06,0.75c1.22,0.5,2.26,1.19,3.13,2.06c0.87,0.88,1.54,1.91,2.01,3.09
				C526.58,176.19,526.82,177.47,526.82,178.85z M522.28,178.85c0-0.94-0.12-1.79-0.37-2.55c-0.24-0.76-0.6-1.4-1.06-1.92
				s-1.02-0.93-1.68-1.21c-0.66-0.28-1.42-0.42-2.27-0.42c-0.86,0-1.62,0.14-2.29,0.42c-0.67,0.28-1.23,0.68-1.69,1.21
				s-0.81,1.17-1.06,1.92c-0.25,0.76-0.37,1.61-0.37,2.55c0,0.95,0.12,1.81,0.37,2.56c0.24,0.76,0.6,1.4,1.06,1.92
				s1.02,0.92,1.69,1.2s1.43,0.41,2.29,0.41c0.85,0,1.6-0.14,2.27-0.41s1.23-0.67,1.68-1.2s0.81-1.17,1.06-1.92
				C522.16,180.65,522.28,179.8,522.28,178.85z"/>
		</g>
		<polygon class="st1" points="385.27,174.91 380.26,185.98 389.89,190.33 394.89,179.26 401.98,188.33 400.36,155.62 
			374.75,175.49 		"/>
	</g>
</g>
</svg>
