<?xml version="1.0" encoding="utf-8"?>
<!-- Generator: Adobe Illustrator 23.0.0, SVG Export Plug-In . SVG Version: 6.00 Build 0)  -->
<svg version="1.1" id="Layer_1" xmlns="http://www.w3.org/2000/svg" xmlns:xlink="http://www.w3.org/1999/xlink" x="0px" y="0px"
	 viewBox="0 0 95.23 90.58" style="enable-background:new 0 0 95.23 90.58;" xml:space="preserve">
<style type="text/css">
	.st0{fill:#FFFFFF;}
	.st1{fill:#FFFFFF;stroke:#FFFFFF;stroke-miterlimit:10;}
</style>
<g>
	<g>
		<path class="st0" d="M47.22,4.66c-11.73,0-21.27,9.54-21.27,21.27c0,0.93,0.06,1.85,0.17,2.74c0.55,4.26,2.37,8.12,5.06,11.21
			c1.39,1.61,3.02,3,4.84,4.12h7.11c-3.04-0.69-5.81-2.13-8.08-4.12c-3.24-2.83-5.49-6.76-6.15-11.21c-0.14-0.9-0.21-1.81-0.21-2.74
			c0-10.22,8.31-18.53,18.53-18.53s18.53,8.31,18.53,18.53c0,0.93-0.07,1.85-0.21,2.74c-0.66,4.45-2.91,8.38-6.15,11.21
			c-2.27,1.99-5.04,3.43-8.08,4.12h7.11c1.81-1.12,3.44-2.51,4.84-4.12c2.69-3.08,4.51-6.95,5.06-11.21
			c0.11-0.9,0.17-1.82,0.17-2.74C68.5,14.2,58.95,4.66,47.22,4.66z"/>
		<g>
			<path class="st1" d="M46.2,34.71C43.86,34.5,41.83,33.58,40,32l1.18-1.58c1.58,1.42,3.13,2.29,5.1,2.5v-6.57
				c-3.89-0.92-5.6-2.36-5.6-5.1V21.2c0-2.71,2.29-4.68,5.52-4.83v-1.52h1.68v1.58c1.97,0.18,3.49,0.92,5.02,2.1l-1.13,1.58
				c-1.26-1.08-2.58-1.66-3.97-1.89v6.46c3.99,0.92,5.68,2.44,5.68,5.1v0.05c0,2.81-2.29,4.73-5.6,4.94v2.58H46.2V34.71z
				 M46.28,18.13c-2.21,0.08-3.57,1.34-3.57,2.94v0.05c0,1.47,0.68,2.44,3.57,3.18V18.13z M51.45,29.95V29.9
				c0-1.55-0.74-2.47-3.65-3.18V33C50.03,32.89,51.45,31.66,51.45,29.95z"/>
		</g>
		<path class="st0" d="M71.47,83.17H22.06c-7.6,0-13.78-6.18-13.78-13.78V40.11c0-7.6,6.18-13.78,13.78-13.78h6.84v4.7h-6.84
			c-5.01,0-9.09,4.08-9.09,9.09v29.28c0,5.01,4.08,9.09,9.09,9.09h49.41c5.01,0,9.09-4.08,9.09-9.09V40.11
			c0-5.01-4.08-9.09-9.09-9.09h-5.92v-4.7h5.92c7.6,0,13.79,6.18,13.79,13.78v29.28C85.26,76.99,79.07,83.17,71.47,83.17z"/>
		<path class="st0" d="M83.14,48.35H70.78c-1.95,0-3.72,0.8-5.01,2.08c-1.29,1.29-2.08,3.06-2.08,5.01c0,3.9,3.19,7.09,7.09,7.09
			h12.35c1.95,0,3.72-0.8,5.01-2.08c1.29-1.29,2.08-3.06,2.08-5.01C90.23,51.53,87.04,48.35,83.14,48.35z M71.7,59.1
			c-2.02,0-3.66-1.64-3.66-3.66c0-2.02,1.64-3.66,3.66-3.66s3.66,1.64,3.66,3.66C75.36,57.46,73.72,59.1,71.7,59.1z"/>
		<path class="st0" d="M75.36,41.94c0,0.57-0.23,1.08-0.6,1.45c-0.38,0.38-0.89,0.6-1.45,0.6H20.69c-1.13,0-2.06-0.92-2.06-2.06
			c0-0.57,0.23-1.08,0.6-1.45c0.38-0.38,0.89-0.6,1.45-0.6H73.3C74.43,39.88,75.36,40.81,75.36,41.94z"/>
	</g>
</g>
</svg>
